<svg xmlns="http://www.w3.org/2000/svg" xmlns:xlink="http://www.w3.org/1999/xlink" width="415.001" height="652.447" viewBox="0 0 415.001 652.447">
  <defs>
    <linearGradient id="linear-gradient" x1="1.079" y1="0.951" x2="-0.041" y2="0.05" gradientUnits="objectBoundingBox">
      <stop offset="0" stop-color="#6366f1"/>
      <stop offset="0.5" stop-color="#8b5cf6"/>
      <stop offset="1" stop-color="#d946ef"/>
    </linearGradient>
  </defs>
  <g id="Group_7474" data-name="Group 7474" transform="translate(0 -2046)">
    <path id="Union_13" data-name="Union 13" d="M0,15.636V8.454A251.332,251.332,0,0,1,38.606,5.731l0-.11c.028,0,2.809-.047,7.4.059,4.239.1,10.932.351,18.75,1,8.786.726,17.172,1.791,24.924,3.165,4.6.815,9.032,1.751,13.162,2.78,4.543,1.131,8.839,2.4,12.766,3.784a134.039,134.039,0,0,0,53.129,7.278c19.561-1.233,39.615-6.628,59.606-16.034a78.569,78.569,0,0,1,7.322-3c2.4-.845,4.873-1.585,7.359-2.2,2.4-.592,4.879-1.084,7.364-1.461,2.394-.363,4.861-.629,7.332-.791,2.375-.156,4.819-.22,7.265-.19,2.344.028,4.755.143,7.164.341a118.76,118.76,0,0,1,13.882,2.007c4.224.86,8.616,1.975,13.055,3.314,3.844,1.159,7.864,2.531,11.95,4.075q.521.2,1.035.394a152.741,152.741,0,0,1,23.915,7.22c22.9,8.95,55.309,8.05,79.016,5.61-.249.267-.249,606.838-.249,606.838s-36.793-12.443-99.5-3.111-98.287,9.851-169.455-3.11S26.613,628.6.185,652.447h0C.1,652.514,0,15.636,0,15.636ZM79.471,9.581c39.211,7.95,71.339,30.937,124.37,12.789C245.756,8.027,278.821,3.4,310.715,9.858a162.659,162.659,0,0,0-24.73-7.291,118.71,118.71,0,0,0-13.856-2c-2.4-.2-4.81-.312-7.149-.341-2.44-.029-4.879.035-7.249.191-2.464.161-4.925.427-7.313.789-2.478.375-4.949.866-7.344,1.456-2.48.612-4.95,1.35-7.34,2.192a78.726,78.726,0,0,0-7.3,3c-5.126,2.412-10.318,4.587-15.434,6.467-5.023,1.845-10.107,3.453-15.109,4.781-4.913,1.3-9.878,2.37-14.759,3.17-4.793.787-9.632,1.337-14.381,1.637-2.919.184-5.853.275-8.768.275q-2.618,0-5.21-.1a135.012,135.012,0,0,1-13.546-1.206c-4.382-.616-8.786-1.462-13.088-2.515-4.228-1.034-8.469-2.3-12.6-3.747a166.74,166.74,0,0,0-25.892-6.554C81.9,8.683,73.519,7.619,64.74,6.894c-5.991-.5-11.322-.759-15.392-.9A199.106,199.106,0,0,1,79.471,9.581Z" transform="translate(0 2046)" fill="url(#linear-gradient)"/>
    <g id="Group_170" data-name="Group 170" transform="translate(3.501 2063.981)" opacity="0.15">
      <path id="Path_527" data-name="Path 527" d="M173.8,163.8c-.809.659-1.654,1.351-2.435,1.991-.457.38-.872.728-1.2,1-.19.114-.427.312-.612.449.108-.072.088-.024.011.036-.55.44-.02.049-.564.506-.292.259-1,.831-1.729,1.405-1.025.809-2.065,1.63-2.558,2.021.106.068.171.1.221.139.341.174.676.373,1.006.566.168.1.329.2.492.294.066.035.131.075.191.109l.132.07-.04-.011c.362.2,2.334,1.431,2.751,1.659l-.054-.038a3.092,3.092,0,0,1,.569.386c-.008-.067.313.084.435.152l-.013.007c.179.095.606.293.9.459l-.027.019c.26.118.711.4.883.5.391.248.978.661,1.533.946l.3.282.054.021,1.249.554c.286.12-.047-1.312-.008-1.317a1.469,1.469,0,0,1,.016.227,1.1,1.1,0,0,0-.025-.328l-.045-.013c-.045-.241.017-.06-.014-.292.032-.018.068.2.1.386a1.179,1.179,0,0,0-.057-.408c-.007-.165.045.013.035-.18a2.4,2.4,0,0,1-.081-.474h0c-.008-.388-.125-.585-.132-.94l.016.037c0-.124-.052-.368-.057-.6,0,.066-.02.125-.04-.011-.007-.258-.055-.434-.048-.628l-.057-.18c-.1-.9-.579-4.437-.695-5.34l.011.036C174.133,166.442,173.975,165.174,173.8,163.8Z" transform="translate(-155.546 -145.905)" fill="#fff"/>
      <path id="Path_528" data-name="Path 528" d="M74.415,171.85c.347.986.71,2.013,1.044,2.968.2.557.389,1.068.541,1.465.04.218.149.5.216.725-.029-.128.009-.09.043,0,.227.668.038.038.281.705.141.361.442,1.225.733,2.1.411,1.237.833,2.494,1.031,3.089.1-.075.155-.124.2-.164.282-.262.575-.509.879-.753.149-.12.3-.246.441-.363.057-.049.115-.1.171-.141l.11-.1-.02.032c.307-.276,2.138-1.712,2.5-2.026l-.053.034a3.225,3.225,0,0,1,.557-.405c-.067-.014.19-.266.292-.356l0,.011c.153-.135.483-.47.741-.689l.013.031c.2-.2.619-.529.772-.664.37-.285.956-.7,1.414-1.121l.369-.188.04-.043.947-.989c.212-.227-1.249-.4-1.243-.438a1.881,1.881,0,0,1,.222.058,1.123,1.123,0,0,0-.316-.091l-.027.036c-.238-.041-.049-.036-.28-.086,0-.039.21.006.4.043a1.256,1.256,0,0,0-.405-.084c-.154-.05.027-.036-.158-.094a2.311,2.311,0,0,1-.475-.087l.006,0c-.372-.123-.59-.083-.927-.2l.039,0c-.116-.05-.364-.077-.582-.151.059.022.108.058-.02.032-.248-.082-.427-.1-.6-.168l-.182-.009c-.88-.209-4.374-.968-5.258-1.162l.037.005C77.012,172.438,75.762,172.155,74.415,171.85Z" transform="translate(-45.407 -153.467)" fill="#fff"/>
      <path id="Path_529" data-name="Path 529" d="M21.584,218.115c-.492.2-1.014.41-1.494.6-.278.116-.536.221-.736.31-.111.028-.254.09-.368.128.065-.019.048,0,0,.022-.337.132-.017.022-.35.16-.18.079-.616.253-1.057.425l-1.552.6c.04.05.064.078.085.1.14.138.272.285.4.431l.2.22a.607.607,0,0,0,.08.083l.055.054-.019-.011c.147.151.921,1.052,1.093,1.227l-.019-.027a1.59,1.59,0,0,1,.22.275c.005-.036.143.09.188.141l-.006,0c.076.076.253.236.369.361l-.018.006c.108.1.282.3.358.38.155.18.375.472.6.7l.105.182.022.017.525.461c.122.106.174-.646.2-.645a.519.519,0,0,1-.028.117.387.387,0,0,0,.036-.164l-.019-.011c.013-.121.019-.027.037-.147.018-.006,0,.109-.015.2a.516.516,0,0,0,.033-.208c.023-.08.019.011.046-.085a1.621,1.621,0,0,1,.033-.246H20.6c.055-.191.027-.3.077-.478l0,.023c.022-.059.032-.187.064-.3-.009.03-.027.057-.019-.011.037-.13.042-.222.073-.31v-.093c.087-.453.391-2.251.469-2.713v.016C21.342,219.453,21.455,218.812,21.584,218.115Z" transform="translate(35.216 -207.022)" fill="#fff"/>
      <path id="Path_530" data-name="Path 530" d="M163.611,28.594c.188.5.385,1.024.568,1.505.109.281.208.543.292.741.023.11.079.256.116.37-.014-.064,0-.048.022,0,.12.339.022.017.152.359.077.185.24.623.4,1.066.227.63.452,1.265.56,1.568.05-.04.078-.064.106-.084.143-.138.288-.265.44-.4.073-.066.151-.13.223-.191l.086-.073a.759.759,0,0,0,.054-.055l-.011.019c.156-.145,1.073-.9,1.251-1.065l-.027.019a1.524,1.524,0,0,1,.279-.213c-.037-.005.093-.136.146-.186l0,.006c.075-.071.239-.246.37-.361l.006.018c.1-.107.307-.276.387-.345.184-.148.48-.367.707-.59l.186-.1.017-.022.474-.516c.106-.122-.641-.19-.641-.211.052.009.1.024.117.028a.463.463,0,0,0-.162-.041l-.011.019c-.12-.018-.027-.019-.146-.042,0-.016.109,0,.2.02a.666.666,0,0,0-.206-.038c-.08-.023.011-.019-.085-.046a1.168,1.168,0,0,1-.245-.038v-.005c-.189-.06-.3-.032-.475-.087h.022c-.059-.022-.185-.037-.3-.069.03.009.057.027-.011.019-.131-.037-.22-.047-.309-.078h-.093c-.45-.1-2.242-.443-2.7-.536h.017C164.94,28.867,164.3,28.737,163.611,28.594Z" transform="translate(-150.285 30.814)" fill="#fff"/>
      <path id="Path_531" data-name="Path 531" d="M212.818,91.212c-.936.459-1.921.937-2.83,1.377-.533.265-1.015.507-1.392.7-.215.069-.487.2-.7.294.12-.041.093,0,0,.038-.635.3-.033.039-.669.362-.346.183-1.166.578-2,.974-1.185.551-2.385,1.114-2.95,1.381.088.091.14.138.186.184.293.247.569.516.85.787.141.133.276.269.414.4.055.054.107.1.163.15.039.033.074.065.113.1l-.039-.016c.307.273,1.946,1.928,2.3,2.247l-.04-.05a2.648,2.648,0,0,1,.463.508c.009-.068.287.153.386.247l-.013.007c.151.136.519.426.768.655l-.031.013c.227.174.6.552.747.692.323.332.8.871,1.275,1.274l.228.343.049.036,1.088.829c.251.186.256-1.29.293-1.285-.012.1-.025.2-.033.23a1.038,1.038,0,0,0,.054-.321l-.042-.023c.01-.242.031-.051.056-.288.036-.011.022.207,0,.4a1.227,1.227,0,0,0,.037-.413c.035-.159.042.023.076-.168a2.463,2.463,0,0,1,.029-.481h0c.077-.38.013-.594.086-.943l0,.039c.035-.12.036-.37.083-.59-.012.062-.045.118-.032-.02.052-.257.048-.432.1-.619l-.013-.183c.106-.9.458-4.455.554-5.356v.033C212.531,93.857,212.668,92.587,212.818,91.212Z" transform="translate(-202.276 -55.29)" fill="#fff"/>
      <path id="Path_532" data-name="Path 532" d="M122.432,101.747c-.5.917-1.017,1.876-1.5,2.765-.28.523-.533,1-.723,1.384-.138.178-.275.448-.4.646.073-.1.076-.054.023.034-.339.614,0,.053-.332.682-.175.346-.613,1.15-1.066,1.954-.642,1.137-1.289,2.293-1.6,2.84.125.02.2.035.26.042.382.034.762.088,1.148.145.193.028.381.055.568.087l.219.03c.053,0,.1.007.148.015l-.039,0c.412.042,2.7.44,3.178.494l-.06-.017a3.051,3.051,0,0,1,.676.145c-.036-.065.322-.043.458-.026l-.009.014c.206.021.673.041,1.007.088l-.019.027c.285.011.808.1,1.011.133.455.081,1.159.24,1.78.293l.381.148h.06l1.369.04c.314,0-.542-1.2-.509-1.217.05.09.1.179.1.2a1.163,1.163,0,0,0-.143-.3l-.044,0c-.131-.206,0-.061-.125-.264.024-.026.139.159.233.322a1.433,1.433,0,0,0-.207-.358c-.066-.149.044,0-.034-.184a2.036,2.036,0,0,1-.252-.409h0c-.159-.355-.337-.494-.476-.821l.029.03c-.041-.12-.186-.319-.277-.531.026.062.03.123-.04,0-.106-.237-.211-.381-.285-.56l-.117-.142c-.435-.793-2.219-3.892-2.667-4.678l.025.029C123.74,104.062,123.114,102.948,122.432,101.747Z" transform="translate(-97.281 -66.865)" fill="#fff"/>
      <path id="Path_533" data-name="Path 533" d="M177.521,245.363c-.377.973-.777,1.988-1.146,2.931-.213.553-.4,1.064-.545,1.463-.111.2-.219.48-.313.693.06-.113.067-.062.029.03-.263.652.006.056-.244.718-.127.366-.463,1.215-.812,2.071-.495,1.211-.993,2.437-1.235,3.014.124,0,.2.008.263.01.384-.015.768-.008,1.157,0,.2,0,.384.007.572.012h.223l.149-.006-.041.01c.41-.007,2.738.1,3.212.091l-.063-.007a3.062,3.062,0,0,1,.685.055c-.044-.056.316-.078.453-.082l0,.015c.208-.005.669-.041,1.012-.041l-.014.029c.285-.027.815,0,1.02,0,.465.025,1.179.094,1.8.071l.4.1.061,0,1.358-.132c.309-.036-.689-1.122-.657-1.14.058.082.116.164.13.19a1.132,1.132,0,0,0-.182-.275l-.046.009c-.158-.187-.016-.059-.156-.251.02-.032.156.137.27.29-.1-.143-.181-.3-.254-.328-.085-.139.046-.008-.059-.174a2.622,2.622,0,0,1-.305-.376l.006,0c-.2-.334-.394-.445-.577-.753l.031.025c-.059-.115-.226-.293-.343-.49.032.058.043.115-.041.01-.137-.224-.258-.351-.351-.519l-.138-.127c-.529-.733-2.689-3.581-3.229-4.312l.026.024C179.108,247.5,178.344,246.469,177.521,245.363Z" transform="translate(-167.81 -245.363)" fill="#fff"/>
    </g>
    <g id="Group_171" data-name="Group 171" transform="translate(352.733 2605.281)" opacity="0.15">
      <path id="Path_527-2" data-name="Path 527" d="M166.024,174.758c.654-.533,1.338-1.093,1.971-1.611.37-.307.705-.589.967-.813.154-.092.345-.253.5-.363-.087.058-.071.019-.009-.029.445-.356.016-.039.456-.41.236-.209.813-.672,1.4-1.137.83-.654,1.671-1.319,2.07-1.635-.085-.055-.139-.084-.179-.113-.276-.141-.547-.3-.814-.458-.136-.079-.266-.16-.4-.238-.053-.028-.106-.061-.155-.088l-.107-.057.033.009c-.293-.159-1.888-1.158-2.226-1.343l.044.03a2.5,2.5,0,0,1-.46-.312c.006.054-.253-.068-.352-.123l.01-.006c-.145-.077-.49-.237-.729-.372l.022-.016c-.21-.1-.576-.324-.714-.407-.316-.2-.792-.535-1.24-.765l-.242-.228-.043-.017-1.01-.448c-.232-.1.038,1.062.006,1.066a1.193,1.193,0,0,1-.013-.184.893.893,0,0,0,.02.265l.037.01c.036.2-.014.049.011.236-.026.014-.055-.161-.078-.313a.954.954,0,0,0,.046.33c.006.134-.036-.01-.029.146a1.941,1.941,0,0,1,.066.384h0c.006.314.1.473.107.761l-.013-.03c0,.1.042.3.046.484,0-.053.016-.1.033.009.006.208.044.351.039.508l.046.145c.082.727.469,3.591.562,4.321l-.009-.029C165.758,172.624,165.885,173.65,166.024,174.758Z" transform="translate(-134.837 -136.631)" fill="#fff"/>
      <path id="Path_528-2" data-name="Path 528" d="M85.169,180.8c-.281-.8-.574-1.629-.845-2.4-.161-.451-.315-.864-.438-1.185-.033-.176-.12-.408-.174-.587.023.1-.008.073-.035,0-.183-.541-.031-.031-.227-.571-.114-.292-.358-.991-.593-1.7-.333-1-.674-2.018-.835-2.5-.079.061-.126.1-.166.133-.228.212-.465.412-.711.609-.12.1-.242.2-.357.293-.046.039-.093.079-.138.114l-.089.08.016-.026c-.249.223-1.73,1.385-2.023,1.64l.043-.027a2.609,2.609,0,0,1-.45.328c.054.011-.154.215-.237.288l0-.009c-.124.11-.391.38-.6.558l-.01-.025c-.162.165-.5.428-.625.537-.3.231-.773.565-1.144.907l-.3.152-.032.035-.766.8c-.171.184,1.01.325,1.006.355a1.523,1.523,0,0,1-.18-.047.909.909,0,0,0,.256.073l.022-.029c.193.033.04.029.226.069,0,.032-.17,0-.32-.035a1.016,1.016,0,0,0,.328.068c.125.04-.022.029.128.076a1.869,1.869,0,0,1,.384.071l-.005,0c.3.1.478.067.75.158L77,179c.094.04.294.063.471.122-.048-.018-.088-.047.016-.026.2.066.346.082.489.136l.147.007c.712.169,3.539.783,4.255.94l-.03,0C83.068,180.32,84.079,180.549,85.169,180.8Z" transform="translate(-62.681 -143.06)" fill="#fff"/>
      <path id="Path_529-2" data-name="Path 529" d="M16.027,223.662c.4-.163.821-.332,1.209-.489.225-.094.434-.179.6-.251.09-.023.206-.073.3-.1-.053.016-.039,0,0-.017.272-.107.014-.018.283-.13.146-.064.5-.2.855-.344l1.256-.484c-.032-.04-.052-.064-.069-.081-.113-.112-.22-.23-.326-.349l-.16-.178a.491.491,0,0,0-.064-.067l-.045-.044.015.009c-.119-.122-.745-.851-.885-.993l.016.022a1.286,1.286,0,0,1-.178-.222c0,.03-.115-.073-.152-.114l.005,0c-.061-.062-.2-.191-.3-.292l.015,0c-.088-.078-.228-.246-.29-.307-.125-.146-.3-.382-.489-.563l-.085-.148-.018-.014-.425-.373c-.1-.085-.141.522-.159.522a.42.42,0,0,1,.023-.095.313.313,0,0,0-.029.132l.015.009c-.011.1-.015.022-.03.119-.015,0,0-.088.012-.164a.417.417,0,0,0-.026.168c-.019.065-.015-.009-.037.069a1.311,1.311,0,0,1-.026.2h0c-.044.154-.022.244-.063.386l0-.018c-.018.047-.026.151-.051.24.007-.024.022-.046.015.009-.03.106-.034.179-.059.251v.075c-.07.367-.316,1.822-.38,2.195v-.013C16.224,222.579,16.132,223.1,16.027,223.662Z" transform="translate(-16.027 -180.027)" fill="#fff"/>
      <path id="Path_530-2" data-name="Path 530" d="M169.129,33.134c-.152-.4-.312-.828-.459-1.218-.088-.228-.168-.44-.237-.6-.018-.089-.064-.207-.094-.3.011.052,0,.039-.017,0-.1-.274-.018-.014-.123-.29-.062-.15-.194-.5-.324-.862-.183-.51-.366-1.024-.453-1.269-.04.032-.063.052-.085.068-.116.112-.233.214-.356.32-.059.053-.123.106-.181.155l-.07.059a.614.614,0,0,0-.044.045l.009-.015c-.126.118-.868.727-1.012.861l.022-.016a1.233,1.233,0,0,1-.225.173c.03,0-.076.11-.118.151l0-.005c-.06.057-.194.2-.3.292l0-.015c-.082.086-.249.223-.313.279-.149.12-.389.3-.572.478l-.151.08-.014.018-.384.417c-.085.1.519.153.518.171-.042-.008-.082-.019-.095-.023a.375.375,0,0,0,.131.033l.009-.015c.1.015.022.015.118.034,0,.013-.088,0-.162-.016a.539.539,0,0,0,.167.03c.065.019-.009.015.069.037a.945.945,0,0,1,.2.03v0c.153.048.243.026.384.071h-.017c.048.018.15.03.239.055-.024-.007-.046-.022.009-.015.106.03.178.038.25.063h.075c.364.078,1.814.358,2.184.433h-.013C168.053,32.914,168.573,33.019,169.129,33.134Z" transform="translate(-133.951 -28.594)" fill="#fff"/>
      <path id="Path_531-2" data-name="Path 531" d="M202.276,102.172c.757-.372,1.554-.758,2.29-1.115.431-.215.821-.411,1.126-.569.174-.055.394-.164.565-.238-.1.033-.075,0,0-.031.514-.244.027-.032.541-.293.28-.148.943-.468,1.62-.788.959-.446,1.93-.9,2.387-1.117-.071-.073-.113-.112-.151-.149-.237-.2-.46-.418-.688-.637-.114-.108-.223-.218-.335-.32-.045-.044-.086-.082-.132-.122l-.092-.079.031.013c-.249-.221-1.575-1.56-1.861-1.818l.033.04a2.143,2.143,0,0,1-.375-.411c-.007.055-.233-.124-.312-.2l.01-.006c-.122-.11-.42-.345-.622-.53l.025-.01c-.184-.141-.483-.446-.6-.56-.261-.269-.647-.7-1.032-1.031l-.184-.277-.04-.029-.88-.67c-.2-.151-.207,1.044-.237,1.04.01-.081.02-.161.027-.186a.84.84,0,0,0-.044.26l.034.019c-.008.2-.025.041-.045.233-.029.009-.018-.168,0-.321a.993.993,0,0,0-.03.334c-.028.128-.034-.019-.061.136a2,2,0,0,1-.024.389h0c-.062.308-.01.481-.069.763l0-.032c-.028.1-.029.3-.067.478.01-.05.036-.1.026.016-.042.208-.039.349-.078.5l.01.148c-.086.727-.371,3.6-.448,4.334V99.31C202.508,100.031,202.4,101.059,202.276,102.172Z" transform="translate(-164.845 -78.628)" fill="#fff"/>
      <path id="Path_532-2" data-name="Path 532" d="M122.187,111.432c.4-.742.823-1.518,1.214-2.237.227-.423.431-.813.585-1.12.112-.144.223-.363.322-.523-.059.084-.061.044-.018-.027.275-.5,0-.043.268-.552.142-.28.5-.93.863-1.581.519-.92,1.043-1.855,1.293-2.3-.1-.016-.159-.028-.21-.034-.309-.027-.617-.072-.929-.117-.156-.023-.308-.044-.459-.07l-.177-.025c-.043,0-.082-.006-.12-.012l.032,0c-.333-.034-2.189-.356-2.572-.4l.049.014a2.469,2.469,0,0,1-.547-.117c.029.052-.261.035-.371.021l.008-.011c-.167-.017-.545-.033-.815-.071l.015-.022c-.231-.009-.654-.082-.818-.107-.368-.066-.938-.194-1.44-.237l-.309-.119H118l-1.108-.032c-.254,0,.438.97.412.985-.041-.073-.077-.145-.085-.165a.941.941,0,0,0,.116.24l.036,0c.106.167,0,.049.1.214-.019.021-.112-.129-.189-.261a1.16,1.16,0,0,0,.167.29c.053.121-.036,0,.028.149a1.647,1.647,0,0,1,.2.331h0c.128.288.272.4.385.665l-.024-.024c.034.1.15.258.224.429-.021-.05-.024-.1.032,0,.086.192.171.308.231.453l.094.115c.352.642,1.8,3.149,2.158,3.785l-.02-.023C121.129,109.558,121.635,110.46,122.187,111.432Z" transform="translate(-96.578 -87.046)" fill="#fff"/>
      <path id="Path_533-2" data-name="Path 533" d="M179.761,254.41c.305-.787.629-1.609.927-2.372.172-.447.326-.861.441-1.184.09-.159.177-.389.253-.561-.048.092-.054.05-.024-.024.213-.528,0-.045.2-.581.1-.3.374-.983.657-1.676.4-.98.8-1.972,1-2.439-.1,0-.161-.007-.213-.008-.311.012-.622.006-.936,0-.158,0-.311-.006-.463-.01h-.18l-.12.005.033-.008c-.331.006-2.216-.078-2.6-.074l.051.006a2.476,2.476,0,0,1-.554-.045c.035.045-.255.063-.366.066l0-.012c-.168,0-.542.034-.819.033l.011-.023c-.231.022-.66,0-.826,0-.377-.02-.954-.076-1.456-.058l-.324-.08-.049,0-1.1.107c-.25.029.557.908.531.922-.047-.066-.094-.133-.105-.154a.916.916,0,0,0,.147.223l.037-.007c.128.151.013.048.126.2-.016.026-.126-.111-.218-.234.081.116.146.24.205.266.069.112-.037.007.047.141a2.121,2.121,0,0,1,.247.3l-.005,0c.16.27.319.36.467.609l-.025-.02c.048.093.182.237.278.4-.026-.047-.035-.093.033-.008.111.181.209.284.284.42l.111.1c.428.593,2.176,2.9,2.613,3.489l-.021-.019C178.476,252.683,179.094,253.515,179.761,254.41Z" transform="translate(-141.657 -201.799)" fill="#fff"/>
    </g>
  </g>
</svg>
