<svg xmlns="http://www.w3.org/2000/svg" xmlns:xlink="http://www.w3.org/1999/xlink" width="1921.496" height="1214.497" viewBox="0 0 1921.496 1214.497">
  <defs>
    <linearGradient id="linear-gradient" x1="1.079" y1="0.951" x2="-0.041" y2="0.05" gradientUnits="objectBoundingBox">
      <stop offset="0" stop-color="#6366f1"/>
      <stop offset="0.5" stop-color="#8b5cf6"/>
      <stop offset="1" stop-color="#d946ef"/>
    </linearGradient>
  </defs>
  <path id="Union_2" data-name="Union 2" d="M0,72.355V39.12S76.268,26.2,178.748,26.522l-.009-.506c.128,0,13-.22,34.272.274,19.626.455,50.618,1.625,86.811,4.615,40.682,3.361,79.508,8.288,115.4,14.646,21.314,3.776,41.816,8.1,60.939,12.865,21.037,5.238,40.924,11.129,59.108,17.51a620.935,620.935,0,0,0,245.992,33.681c90.568-5.705,183.422-30.668,275.981-74.2a365.018,365.018,0,0,1,33.9-13.9c11.1-3.911,22.565-7.332,34.078-10.173,11.12-2.742,22.591-5.016,34.095-6.758C1170.4,2.9,1181.819,1.665,1193.26.914c11-.722,22.315-1.02,33.639-.882,10.853.13,22.012.663,33.168,1.581a550.8,550.8,0,0,1,64.275,9.285c19.553,3.979,39.891,9.139,60.448,15.337,17.8,5.366,36.412,11.71,55.328,18.856q2.418.913,4.808,1.831a707.326,707.326,0,0,1,110.717,33.407c106.034,41.413,256.087,37.251,365.854,25.96-1.15,1.234-1.15,1003.432-1.15,1003.432s-170.355-57.585-460.678-14.4-455.079,45.589-784.592-14.4S123.222,1104.123.854,1214.493v0C.469,1214.51,0,72.355,0,72.355ZM367.957,44.339C549.508,81.13,698.27,187.5,943.8,103.523c194.072-66.376,347.174-87.783,494.846-57.9-34.586-13.015-73.371-25.371-114.509-33.742a549.33,549.33,0,0,0-64.157-9.268c-11.133-.917-22.269-1.448-33.1-1.579-11.3-.136-22.591.16-33.562.88-11.413.749-22.806,1.977-33.864,3.652-11.473,1.738-22.914,4.006-34,6.741-11.482,2.832-22.917,6.245-33.985,10.145a364.107,364.107,0,0,0-33.8,13.865c-23.732,11.161-47.775,21.228-71.46,29.923-23.26,8.538-46.8,15.981-69.96,22.123-22.747,6.031-45.738,10.967-68.335,14.672-22.194,3.639-44.6,6.186-66.588,7.571-13.513.851-27.094,1.278-40.6,1.278q-12.119,0-24.12-.458a624.213,624.213,0,0,1-62.718-5.583c-20.294-2.852-40.682-6.767-60.6-11.635-19.579-4.786-39.213-10.619-58.353-17.336-34.732-12.189-75.066-22.394-119.884-30.333C379.194,40.184,340.4,35.261,299.752,31.9c-27.763-2.294-52.464-3.515-71.316-4.165C273.017,29.808,320.652,34.753,367.957,44.339Z" transform="translate(0 0)" fill="url(#linear-gradient)"/>
</svg>
