<svg xmlns="http://www.w3.org/2000/svg" width="42.992" height="42.99" viewBox="0 0 42.992 42.99">
  <g id="Group_7418" data-name="Group 7418" transform="translate(0.502 0.503)">
    <path id="Path_61350" data-name="Path 61350" d="M2321.346,2105.687c0,.382.149.911-.042,1.1s-.72.043-1.1.043h-40.287a3.508,3.508,0,0,1-.3-.278.784.784,0,0,1,.185-1.232c.4-.188.421-.46.421-.817q-.008-9.723,0-19.446c0-.912.262-1.178,1.162-1.179q2.845,0,5.691,0c.6,0,.6,0,.6-.589q0-3.848,0-7.7c0-.746.3-1.038,1.043-1.049.164,0,.327,0,.491,0h14.328c.587,0,.589,0,.589-.6q0-3.766,0-7.533c0-.232-.008-.465.007-.7a.833.833,0,0,1,1.081-.8,4.141,4.141,0,0,1,.5.175l13.852,5.258c.9.343.99.466.99,1.443q0,16.314-.006,32.628c0,.4-.009.751.46.916C2321.144,2105.39,2321.235,2105.568,2321.346,2105.687Zm-2.483-17.16h0q0-8.043.005-16.087a.6.6,0,0,0-.421-.681q-6.09-2.293-12.169-4.611c-.439-.167-.461-.15-.461.317q0,3.049,0,6.1c0,1.114-.11.97.942.983a2.19,2.19,0,0,1,.286.015.811.811,0,0,1,.719.728,5.027,5.027,0,0,1,.017.613q0,14.244,0,28.489c0,.15,0,.3,0,.45a.284.284,0,0,0,.326.325h2.251c.225,0,.317-.123.315-.336,0-.15,0-.3,0-.451q0-14.2,0-28.407c0-.191-.005-.383.007-.573a.839.839,0,1,1,1.678.015c.012.19.006.382.006.573q0,14.162,0,28.325c0,.15.009.3,0,.45-.02.3.12.414.414.409.6-.011,1.2,0,1.8,0,.681,0,.682,0,.682-.67q0-12.5,0-25.01a4.572,4.572,0,0,1,.019-.613.814.814,0,0,1,.774-.716.826.826,0,0,1,.864.662,3.31,3.31,0,0,1,.031.611q0,9.21,0,18.419c0,2.279.005,4.558,0,6.836,0,.346.1.509.469.482.271-.02.546,0,.818,0,.631,0,.632,0,.632-.638Q2318.864,2096.529,2318.864,2088.526Zm-36.956,6.8q0,4.646,0,9.292c0,.532.016.548.557.548h15.514c.571,0,.578-.006.578-.569q0-9.231,0-18.461c0-.564-.005-.568-.577-.569h-15.473c-.6,0-.6,0-.6.589Q2281.908,2090.745,2281.907,2095.329Zm18.339-.579v2.415q0,3.746,0,7.491c0,.277,0,.518.39.516,1.692-.009,3.384-.005,5.076,0,.25,0,.382-.09.381-.357q-.005-2.559,0-5.117c0-.293-.145-.375-.409-.372-.682.007-1.364,0-2.046,0-.519,0-1.038.013-1.555-.013a.829.829,0,0,1-.809-.819.841.841,0,0,1,.821-.849c.149-.012.3-.007.45-.007,1.037,0,2.074-.007,3.111,0,.311,0,.447-.1.44-.427q-.021-1.024,0-2.047c.006-.322-.126-.433-.438-.429-.941.011-1.883,0-2.825,0-.245,0-.492.009-.736-.009a.836.836,0,0,1-.015-1.671c.149-.013.3-.009.45-.009,1.036,0,2.074-.009,3.111,0,.338,0,.462-.121.453-.457-.016-.641-.022-1.283,0-1.924.015-.386-.108-.539-.511-.526-.763.025-1.528.008-2.292.006-.409,0-.82.014-1.227-.013a.829.829,0,0,1-.794-.832.841.841,0,0,1,.8-.833c.135-.013.273-.009.409-.009q1.514,0,3.029,0c.583,0,.584,0,.585-.6,0-.355,0-.71,0-1.064,0-1.23,0-1.23-1.226-1.23-.887,0-1.774.007-2.661,0a.854.854,0,0,1-.932-.826.866.866,0,0,1,.945-.856c.136,0,.273,0,.409,0,1,0,1.992-.01,2.988.005.349.005.494-.107.482-.47-.021-.614,0-1.228-.005-1.842,0-.587,0-.589-.6-.589h-9.824a4.426,4.426,0,0,1-.531-.015.834.834,0,0,1,.006-1.659,4.432,4.432,0,0,1,.531-.014h9.865c.536,0,.548-.014.55-.554q0-.983,0-1.965c0-.522-.016-.539-.524-.539h-15.678c-.512,0-.527.016-.528.536q0,3.255,0,6.509c0,.6,0,.6.587.6q4.564,0,9.129,0c.913,0,1.171.257,1.171,1.166Q2300.249,2089.9,2300.247,2094.75Z" transform="translate(-2279.401 -2064.891)" fill="#d946ef" stroke="#d946ef" stroke-width="1"/>
    <path id="Path_61351" data-name="Path 61351" d="M2354.118,2084.8a.836.836,0,1,1-.034,1.672.836.836,0,0,1,.034-1.672Z" transform="translate(-2317.41 -2075.133)" fill="#d946ef"/>
    <path id="Path_61352" data-name="Path 61352" d="M2293.445,2115.156c0,.614.007,1.227,0,1.841a.847.847,0,0,1-.893.954q-1.92.044-3.843,0a.842.842,0,0,1-.874-.933q-.017-1.881,0-3.762a.84.84,0,0,1,.876-.931q1.92-.047,3.844,0a.845.845,0,0,1,.891.955C2293.453,2113.9,2293.445,2114.529,2293.445,2115.156Zm-1.689-.022c0-.218-.011-.437,0-.654.019-.313-.109-.45-.428-.441-.477.013-.954.007-1.431,0-.247,0-.386.092-.383.358.005.491,0,.981,0,1.472,0,.235.1.354.344.354.273,0,.545.005.818,0C2291.926,2116.217,2291.74,2116.371,2291.756,2115.133Z" transform="translate(-2283.735 -2089.281)" fill="#6366f1"/>
    <path id="Path_61353" data-name="Path 61353" d="M2293.445,2131.333c0,.614.007,1.227,0,1.841a.847.847,0,0,1-.885.96q-1.92.047-3.843,0a.854.854,0,0,1-.882-.968q-.015-1.841,0-3.681a.878.878,0,0,1,.952-.988q1.86-.035,3.72,0c.635.013.932.358.939.995C2293.451,2130.106,2293.445,2130.72,2293.445,2131.333Zm-1.69.025c0-.259,0-.518,0-.777a.3.3,0,0,0-.345-.353q-.777,0-1.554,0c-.241,0-.342.123-.34.357q.005.736,0,1.473c0,.236.107.354.345.352.273,0,.545.005.818,0C2291.917,2132.4,2291.743,2132.55,2291.755,2131.358Z" transform="translate(-2283.735 -2097.606)" fill="#6366f1"/>
    <path id="Path_61354" data-name="Path 61354" d="M2309.634,2115.112c0,.6.005,1.2,0,1.8-.007.7-.323,1.037-1.022,1.046q-1.8.025-3.6,0c-.679-.011-.989-.351-.993-1.03q-.01-1.8,0-3.6a.9.9,0,0,1,1-1.023q1.8-.029,3.6,0c.705.011,1.009.345,1.017,1.05C2309.639,2113.94,2309.635,2114.526,2309.634,2115.112Zm-2.808-1.075c-.232,0-.464.01-.7,0-.319-.016-.439.128-.429.441.015.449.01.9,0,1.35-.006.274.105.4.385.4q.736-.01,1.472,0c.279,0,.392-.124.386-.4q-.013-.7,0-1.391c.006-.274-.105-.406-.385-.4C2307.317,2114.043,2307.071,2114.038,2306.826,2114.037Z" transform="translate(-2292.064 -2089.277)" fill="#6366f1"/>
    <path id="Path_61355" data-name="Path 61355" d="M2309.634,2131.318c0,.6.006,1.2,0,1.8-.008.66-.31,1.012-.957,1.024q-1.86.035-3.72,0a.878.878,0,0,1-.935-1q-.011-1.818,0-3.638a.885.885,0,0,1,.975-1.005q1.819-.032,3.638,0a.9.9,0,0,1,1,1.027C2309.64,2130.119,2309.634,2130.718,2309.634,2131.318Zm-3.928,0c0,.218.01.437,0,.654-.019.311.106.452.427.444.477-.012.954-.009,1.432,0,.278,0,.393-.122.387-.4q-.014-.7,0-1.391c.005-.273-.1-.407-.385-.4-.259.007-.518,0-.777,0C2305.536,2130.237,2305.721,2130.081,2305.705,2131.318Z" transform="translate(-2292.064 -2097.605)" fill="#6366f1"/>
    <path id="Path_61356" data-name="Path 61356" d="M2305.707,2095.427a.836.836,0,1,1-.819-.847A.843.843,0,0,1,2305.707,2095.427Z" transform="translate(-2292.075 -2080.165)" fill="#d946ef"/>
  </g>
</svg>
