<svg id="Group_7403" data-name="Group 7403" xmlns="http://www.w3.org/2000/svg" width="50.179" height="43.5" viewBox="0 0 50.179 43.5">
  <path id="Path_61287" data-name="Path 61287" d="M1701.671,1455.847c-.985,0-1.9.005-2.82,0a.8.8,0,0,1-.833-.652.823.823,0,0,1,.392-.944.983.983,0,0,1,.554-.117c1.6,0,3.2-.006,4.8,0,.649,0,.948.314.951.976q.012,2.376,0,4.751c0,.634-.35,1-.89.994-.51-.01-.818-.373-.823-1-.007-.868,0-1.735,0-2.646a1.018,1.018,0,0,0-.517.387q-5.524,5.516-11.035,11.044a1.808,1.808,0,0,1-1.429.587c-1.409-.032-2.82.007-4.229-.02a.694.694,0,0,0-.774.567,9.941,9.941,0,0,1-8.859,6.947,1.122,1.122,0,0,0-.708.38c-1.377,1.38-2.764,2.749-4.13,4.141a1.6,1.6,0,0,1-1.248.515c-1.792-.02-3.585,0-5.378-.016a1.288,1.288,0,0,0-1.005.426q-3.679,3.705-7.38,7.388c-.612.612-1.116.7-1.523.286s-.3-.9.316-1.523q3.875-3.878,7.746-7.76a1.658,1.658,0,0,1,1.294-.532c1.792.022,3.585,0,5.378.015a1.163,1.163,0,0,0,.923-.37c.872-.9,1.768-1.776,2.651-2.665.4-.4.394-.425-.125-.566a10.067,10.067,0,1,1,12.5-10.777,9.052,9.052,0,0,1,.028,1.356c-.012.367.136.488.492.484,1.253-.013,2.506-.008,3.759,0a.794.794,0,0,0,.611-.231q5.606-5.618,11.217-11.23A1.192,1.192,0,0,0,1701.671,1455.847Zm-26.269,2.514a8.272,8.272,0,0,0-8.256,8.313,8.3,8.3,0,0,0,16.608.059A8.269,8.269,0,0,0,1675.4,1458.361Z" transform="translate(-1654.545 -1454.13)" fill="#d946ef"/>
  <path id="Path_61288" data-name="Path 61288" d="M1808.771,1504.915q0,7.728,0,15.456c0,1.035-.232,1.271-1.247,1.272q-2.167,0-4.334,0c-.859,0-1.14-.274-1.141-1.116q-.005-15.638,0-31.277c0-.794.278-1.071,1.068-1.073q2.271-.007,4.543,0c.858,0,1.12.264,1.12,1.127q0,7.807,0,15.613Zm-1.71-.009h0q0-7.126,0-14.251c0-.76,0-.76-.781-.761H1804.5c-.737,0-.739,0-.739.75q0,14.251,0,28.5a1.524,1.524,0,0,1,0,.209c-.064.472.162.6.6.585.66-.028,1.322-.006,1.983-.007.715,0,.717,0,.717-.724Q1807.061,1512.057,1807.061,1504.906Z" transform="translate(-1758.599 -1478.146)" fill="#6366f1"/>
  <path id="Path_61289" data-name="Path 61289" d="M1780.4,1524.266q0,6.056,0,12.112c0,1.053-.229,1.278-1.294,1.279-1.444,0-2.889,0-4.333,0-.812,0-1.095-.288-1.1-1.108q-.006-12.295,0-24.59c0-.816.275-1.081,1.11-1.083q2.245-.005,4.49,0c.854,0,1.128.27,1.129,1.122q0,6.135,0,12.269Zm-1.71,0h0q0-5.481,0-10.962c0-.708,0-.709-.727-.71-.679,0-1.358.018-2.036-.007-.413-.015-.54.141-.539.546q.011,11.144,0,22.288c0,.42.158.545.555.533.7-.021,1.394-.037,2.087,0,.532.032.682-.152.679-.679C1778.681,1531.606,1778.69,1527.935,1778.69,1524.264Z" transform="translate(-1738.585 -1494.159)" fill="#6366f1"/>
  <path id="Path_61290" data-name="Path 61290" d="M1752.031,1541.214q0,4.619,0,9.239c0,.957-.253,1.211-1.2,1.213q-2.192,0-4.384,0c-.856,0-1.136-.275-1.136-1.12q-.005-9.369,0-18.738c0-.794.276-1.07,1.067-1.073q2.3-.007,4.593,0c.777,0,1.066.3,1.067,1.084q.006,4.7,0,9.4Zm-1.71-.011h0c0-2.714-.01-5.428.01-8.142,0-.484-.151-.643-.628-.62-.694.033-1.392.032-2.087,0-.454-.02-.61.13-.6.593.025,1.391.008,2.784.008,4.175,0,4.036.006,8.072-.012,12.108,0,.508.159.673.657.646a17.377,17.377,0,0,1,1.982,0c.523.032.69-.137.686-.672C1750.308,1546.6,1750.321,1543.9,1750.321,1541.2Z" transform="translate(-1718.572 -1508.168)" fill="#6366f1"/>
  <path id="Path_61291" data-name="Path 61291" d="M1723.663,1560.561q0,2.973,0,5.947c0,.911-.265,1.171-1.188,1.172q-2.217,0-4.434,0c-.814,0-1.1-.286-1.1-1.1q-.006-6.025,0-12.05c0-.809.289-1.089,1.11-1.091q2.269-.007,4.538,0c.78,0,1.073.294,1.075,1.074C1723.667,1556.527,1723.664,1558.544,1723.663,1560.561Zm-5.014,0c0,1.618.012,3.235-.008,4.853-.005.436.15.58.576.566.747-.025,1.5-.018,2.244,0,.353.007.5-.118.5-.483q-.013-4.931,0-9.862c0-.363-.136-.493-.493-.485-.748.016-1.5.023-2.244,0-.425-.014-.581.127-.576.565C1718.662,1557.323,1718.65,1558.941,1718.649,1560.559Z" transform="translate(-1698.56 -1524.183)" fill="#6366f1"/>
  <path id="Path_61292" data-name="Path 61292" d="M1695.292,1570.28c0,1.425,0,2.851,0,4.276,0,.851-.277,1.129-1.123,1.131q-2.242.007-4.485,0c-.822,0-1.112-.282-1.113-1.088q-.007-4.355,0-8.709c0-.817.284-1.1,1.1-1.1q2.268-.008,4.537,0c.806,0,1.086.29,1.089,1.112C1695.3,1567.359,1695.292,1568.82,1695.292,1570.28Zm-5.014-.069c0,1.078.014,2.157-.007,3.234-.008.413.145.551.548.539.765-.022,1.53-.015,2.3,0,.329.005.47-.114.469-.455q-.012-3.287,0-6.573c0-.338-.133-.463-.465-.458-.782.012-1.565.019-2.347,0-.405-.011-.5.173-.5.536C1690.288,1568.089,1690.279,1569.149,1690.278,1570.21Z" transform="translate(-1678.545 -1532.19)" fill="#6366f1"/>
  <path id="Path_61293" data-name="Path 61293" d="M1663.5,1585.7c-.748,0-1.5.006-2.246,0s-1.057-.3-1.062-1.036q-.012-2.324,0-4.648c0-.742.3-1.033,1.061-1.036q2.3-.01,4.6,0c.775,0,1.06.3,1.063,1.087q.008,2.272,0,4.544c0,.807-.291,1.085-1.114,1.09C1665.035,1585.7,1664.269,1585.7,1663.5,1585.7Zm-.077-1.712c.512,0,.929-.008,1.346,0,.309.008.44-.12.437-.432-.009-.817-.007-1.634,0-2.45,0-.275-.1-.424-.392-.422q-1.251.008-2.5,0c-.284,0-.413.118-.409.4.007.434-.014.87,0,1.3.021.5-.215,1.126.109,1.462C1662.366,1584.215,1663.01,1583.92,1663.426,1583.984Z" transform="translate(-1658.528 -1542.198)" fill="#6366f1"/>
  <path id="Path_61294" data-name="Path 61294" d="M1721.948,1479.365a.84.84,0,0,1-.86.861c-.469.023-.94,0-1.409.013-.628.015-1.036.33-1.048.793-.011.442.362.762.964.827a2.524,2.524,0,0,1,2.3,1.954,2.5,2.5,0,0,1-1.208,2.762.7.7,0,0,0-.407.755,1.524,1.524,0,0,1,0,.208c-.014.658-.317,1.033-.841,1.044-.544.011-.892-.37-.866-1.054.019-.49-.159-.631-.631-.618-.692.019-1.061-.324-1.045-.878.016-.532.377-.821,1.046-.829.452-.005.906.013,1.357-.011a.848.848,0,0,0,.9-.822.874.874,0,0,0-.885-.79,2.527,2.527,0,0,1-1.131-4.738.645.645,0,0,0,.378-.667,2.933,2.933,0,0,1,.01-.573.854.854,0,0,1,1.7.013,1.008,1.008,0,0,1,.008.26c-.07.5.133.675.64.653C1721.58,1478.5,1721.951,1478.839,1721.948,1479.365Z" transform="translate(-1698.52 -1470.159)" fill="#6366f1"/>
</svg>
