<svg xmlns="http://www.w3.org/2000/svg" width="42.516" height="35.216" viewBox="0 0 42.516 35.216">
  <g id="Group_7420" data-name="Group 7420" transform="translate(0.5 0.495)">
    <path id="Path_61326" data-name="Path 61326" d="M2321.126,1513.114c-.263,1.46-.533,2.919-.79,4.381-.659,3.762-1.306,7.527-1.969,11.288a2.453,2.453,0,0,1-2.224,2.224,3.894,3.894,0,0,1-1.006-.08c-.461-.061-.476-.061-.476.422,0,1.689,0,3.377,0,5.065a2.4,2.4,0,0,1-2.56,2.562q-14.972,0-29.945,0a2.376,2.376,0,0,1-2.542-2.53q0-8.084,0-16.167a2.4,2.4,0,0,1,2.5-2.541c.675-.014,1.351-.021,2.026,0,.39.014.575-.1.645-.513.563-3.34,1.155-6.676,1.724-10.014a2.61,2.61,0,0,1,2.22-2.436,4.428,4.428,0,0,1,1.482.16q9.009,1.6,18.015,3.212c3.508.626,7.012,1.265,10.524,1.866a2.724,2.724,0,0,1,2.378,1.963Zm-23.989,6.074q-7.455,0-14.911,0c-.914,0-1.207.3-1.207,1.218q0,7.963,0,15.924c0,.882.348,1.239,1.218,1.239q14.891,0,29.782,0c.873,0,1.232-.36,1.232-1.229q0-4.316,0-8.631,0-3.727,0-7.455a.94.94,0,0,0-1.038-1.063c-.162,0-.324,0-.487,0Zm2.259-1.453q6.319,0,12.639,0a2.418,2.418,0,0,1,2.625,2.625q0,4.071,0,8.143c0,1.016.02,1.037,1.065,1.052.795.012,1.12-.24,1.245-.964q.985-5.683,1.971-11.366c.087-.5.071-.519-.415-.605q-7.174-1.275-14.347-2.552-8.249-1.471-16.5-2.951c-.309-.056-.43.027-.483.336-.32,1.9-.657,3.8-.983,5.7-.1.574-.09.577.5.577Zm20.334-5c.021-.787-.321-1.155-1.114-1.3q-3.288-.586-6.578-1.167l-22.678-4.045a1.066,1.066,0,0,0-1.4.95c-.136.688-.229,1.385-.371,2.072-.069.334.044.435.361.49,3.084.541,6.165,1.1,9.247,1.646q8.33,1.484,16.661,2.965,2.511.448,5.021.9c.189.034.4.08.445-.2C2319.467,1514.25,2319.607,1513.439,2319.73,1512.739Z" transform="translate(-2279.61 -1504.756)" fill="#d946ef" stroke="#d946ef" stroke-width="1"/>
    <path id="Path_61327" data-name="Path 61327" d="M2291.355,1549.262c.755,0,1.511,0,2.267,0a1.734,1.734,0,0,1,1.858,1.764c.024.593.024,1.188,0,1.781a1.792,1.792,0,0,1-2,1.812c-1.417.013-2.833,0-4.25,0a4.121,4.121,0,0,1-.564-.052,1.669,1.669,0,0,1-1.458-1.633q-.022-.991,0-1.983a1.7,1.7,0,0,1,1.719-1.685C2289.736,1549.253,2290.545,1549.263,2291.355,1549.262Zm0,1.409c-.742,0-1.484.011-2.225,0-.385-.008-.535.154-.523.532.016.485.014.971,0,1.457-.01.36.14.515.5.513q2.225-.01,4.451,0c.354,0,.48-.152.472-.489-.013-.5-.017-1,0-1.5.014-.39-.159-.525-.534-.517C2292.787,1550.683,2292.072,1550.672,2291.357,1550.672Z" transform="translate(-2283.551 -1527.873)" fill="#6366f1"/>
    <path id="Path_61328" data-name="Path 61328" d="M2290.442,1566.037c-.62,0-1.24.006-1.86,0a.731.731,0,0,1-.8-.68.718.718,0,0,1,.774-.715c1.24-.017,2.481-.015,3.721,0a.729.729,0,0,1,.756.692.7.7,0,0,1-.771.7C2291.656,1566.044,2291.049,1566.036,2290.442,1566.037Z" transform="translate(-2283.855 -1535.856)" fill="#6366f1"/>
    <path id="Path_61329" data-name="Path 61329" d="M2336.034,1566.037c-.606,0-1.213.007-1.819,0a.693.693,0,0,1-.778-.647.723.723,0,0,1,.74-.746c1.253-.016,2.506-.017,3.758,0a.7.7,0,1,1-.043,1.392C2337.273,1566.043,2336.654,1566.037,2336.034,1566.037Z" transform="translate(-2307.57 -1535.856)" fill="#6366f1"/>
    <path id="Path_61330" data-name="Path 61330" d="M2305.615,1566.037c-.606,0-1.212.006-1.818,0a.678.678,0,0,1-.764-.655.688.688,0,0,1,.737-.737q1.878-.029,3.757,0a.719.719,0,0,1,.731.753c-.024.389-.313.634-.785.64C2306.854,1566.043,2306.234,1566.037,2305.615,1566.037Z" transform="translate(-2291.777 -1535.856)" fill="#6366f1"/>
    <path id="Path_61331" data-name="Path 61331" d="M2320.859,1566.036c-.607,0-1.215.006-1.822,0-.5-.006-.782-.255-.792-.675a.7.7,0,0,1,.76-.721q1.842-.023,3.685,0a.7.7,0,0,1,.772.71c0,.421-.286.68-.78.687C2322.074,1566.043,2321.467,1566.036,2320.859,1566.036Z" transform="translate(-2299.678 -1535.855)" fill="#6366f1"/>
  </g>
</svg>
