<svg id="Group_7402" data-name="Group 7402" xmlns="http://www.w3.org/2000/svg" width="43.201" height="49.298" viewBox="0 0 43.201 49.298">
  <path id="Path_61285" data-name="Path 61285" d="M1744.812,1719.843c-1.408-.537-2.825-1.049-4.194-1.685a45.178,45.178,0,0,1-10.276-6.463,22.822,22.822,0,0,1-5.2-6.005,11.087,11.087,0,0,1-1.542-5.638c.024-7.3.008-14.6.008-21.9,0-1.036.151-1.259,1.133-1.554q9.885-2.974,19.772-5.942a2.288,2.288,0,0,1,1.368,0q9.861,2.97,19.725,5.93c1.029.31,1.188.542,1.188,1.618,0,7.285-.018,14.571.007,21.856a11.816,11.816,0,0,1-2.479,7.092,32.171,32.171,0,0,1-9.62,8.386,43.021,43.021,0,0,1-8.766,4.157c-.121.041-.233.1-.35.156Zm19.837-29.852c0-3.61-.009-7.221.01-10.832a.734.734,0,0,0-.621-.842q-9.18-2.73-18.348-5.5a1.627,1.627,0,0,0-.984,0q-9.17,2.761-18.348,5.5a.735.735,0,0,0-.623.841q.021,10.495,0,20.99a8.48,8.48,0,0,0,.928,3.892,19.082,19.082,0,0,0,4.711,5.783,41.365,41.365,0,0,0,13.381,7.732,1.245,1.245,0,0,0,.882,0,41.513,41.513,0,0,0,8.88-4.359,28.605,28.605,0,0,0,8.075-7.259,10,10,0,0,0,2.077-6.175C1764.594,1696.507,1764.651,1693.248,1764.649,1689.99Z" transform="translate(-1723.596 -1670.544)" fill="#6366f1"/>
  <path id="Path_61286" data-name="Path 61286" d="M1775.521,1738.766a1.332,1.332,0,0,1-.777-.25c-1.705-1.025-3.42-2.036-5.118-3.073a.715.715,0,0,0-.868-.009c-1.683,1.031-3.388,2.027-5.075,3.051a1.376,1.376,0,0,1-1.62.055,1.35,1.35,0,0,1-.434-1.56c.44-1.923.861-3.851,1.313-5.772a.75.75,0,0,0-.276-.839q-2.1-1.807-4.174-3.634c-.169-.148-.333-.3-.494-.459a1.22,1.22,0,0,1-.326-1.327,1.193,1.193,0,0,1,1.077-.841c1.371-.143,2.745-.264,4.117-.391.734-.068,1.468-.146,2.2-.192.307-.019.4-.21.5-.44q1.123-2.635,2.253-5.266c.057-.133.116-.265.173-.4a1.239,1.239,0,0,1,1.184-.832,1.225,1.225,0,0,1,1.193.817q.669,1.546,1.33,3.1c.373.87.754,1.737,1.113,2.613a.585.585,0,0,0,.565.414c2.044.176,4.087.375,6.13.563a1.274,1.274,0,0,1,.774,2.274c-1.459,1.279-2.9,2.576-4.386,3.829a1.069,1.069,0,0,0-.431,1.233c.441,1.775.826,3.563,1.228,5.347a3.813,3.813,0,0,1,.113.71A1.191,1.191,0,0,1,1775.521,1738.766Zm-.461-1.835c.122-.212.021-.362-.013-.51-.393-1.753-.783-3.507-1.192-5.256a1.432,1.432,0,0,1,.49-1.594c.188-.15.361-.319.541-.477q1.823-1.606,3.645-3.214c.084-.074.232-.122.2-.312-.3-.031-.6-.066-.9-.094-1.66-.154-3.319-.316-4.98-.454a1.447,1.447,0,0,1-1.3-.986q-.617-1.464-1.245-2.922c-.356-.832-.716-1.662-1.112-2.582-.115.242-.187.381-.249.524q-1.06,2.478-2.116,4.958a1.463,1.463,0,0,1-1.331,1.006q-2.038.149-4.069.375a8.219,8.219,0,0,0-1.864.242c.284.254.521.469.76.681,1.2,1.059,2.4,2.133,3.62,3.17a1.622,1.622,0,0,1,.549,1.8c-.423,1.746-.8,3.5-1.2,5.255-.026.113-.118.238.034.366.134-.072.276-.142.411-.223,1.5-.9,3.01-1.783,4.5-2.706a1.6,1.6,0,0,1,1.881-.012c1,.636,2.031,1.229,3.05,1.839C1773.8,1736.181,1774.427,1736.553,1775.061,1736.93Z" transform="translate(-1747.585 -1703.028)" fill="#d946ef"/>
</svg>
