<svg id="Group_7401" data-name="Group 7401" xmlns="http://www.w3.org/2000/svg" width="49.309" height="49.311" viewBox="0 0 49.309 49.311">
  <path id="Path_61281" data-name="Path 61281" d="M1400.048,1427.585a1.161,1.161,0,0,1,.6,1.123c-.035.382.213.4.495.4,1.364,0,2.727,0,4.09,0,2.695,0,5.39.031,8.084-.011a7.708,7.708,0,0,1,5.066,1.762c1.345,1.065,2.716,2.1,4.067,3.155a1.338,1.338,0,0,0,.881.3q5.943-.013,11.886-.005a2.538,2.538,0,0,1,2.778,2.78q0,7.074,0,14.147a2.506,2.506,0,0,1-2.739,2.757q-5.1.007-10.2,0c-.08,0-.161,0-.241,0a.981.981,0,1,1,.024-1.961c2.1-.01,4.2-.02,6.3.006a.773.773,0,0,0,.91-.641,4.951,4.951,0,0,1,3.458-3.389.613.613,0,0,0,.528-.7c-.021-2.117-.017-4.234,0-6.352a.553.553,0,0,0-.469-.638,5.042,5.042,0,0,1-3.578-3.571.554.554,0,0,0-.631-.477q-9.5.015-19.007.009a2.564,2.564,0,0,0-.478.038.987.987,0,0,0-.375,1.811c1.4.79,2.8,1.556,4.2,2.341.3.166.431-.019.6-.2a5.632,5.632,0,0,1,4.019-1.8,5.681,5.681,0,0,1,1.181,11.266,5.48,5.48,0,0,1-5.538-2.119.914.914,0,0,0-.96-.407,7.027,7.027,0,0,1-1.995-.254,29.617,29.617,0,0,1-7.156-1.833c-.962-.416-.969-.4-.969.647,0,.561.012,1.123,0,1.684a.448.448,0,0,0,.385.508,5.1,5.1,0,0,1,3.676,3.66.5.5,0,0,0,.588.41c2.085-.011,4.17-.006,6.256,0a3.22,3.22,0,0,1,.528.022.98.98,0,0,1-.021,1.928,3.291,3.291,0,0,1-.48.019c-3.368,0-6.738-.048-10.1.021a2.685,2.685,0,0,1-2.808-2.827c.072-2.211-.009-4.427.035-6.64a1.308,1.308,0,0,0-.743-1.384,2.082,2.082,0,0,0-1.166-.345c-.261.021-.383.111-.374.377.008.224,0,.449,0,.674a.966.966,0,0,1-1.078,1.069c-1.347.009-2.694,0-4.042,0-1.411,0-2.823.006-4.234,0a.957.957,0,0,1-1.08-1.064q-.008-7.627-.007-15.254a1.2,1.2,0,0,1,.6-1.026Zm19.353,6.716.035-.1c-.849-.655-1.7-1.3-2.547-1.966a5.432,5.432,0,0,0-3.444-1.161c-4.074-.009-8.148,0-12.222-.011-.428,0-.588.108-.585.565q.028,4.33,0,8.661c0,.457.156.585.586.563a2.329,2.329,0,0,1,1.6.336c3.523,2.543,7.62,3.418,11.813,3.987a1.328,1.328,0,0,0,1.5-.928,1.387,1.387,0,0,0-.7-1.632c-.329-.2-.672-.375-1.008-.563-1.371-.768-2.764-1.5-4.1-2.316a2.871,2.871,0,0,1-1.2-3.282,2.957,2.957,0,0,1,2.815-2.152c.385-.005.77,0,1.155,0Zm-27.223,1.906c0,2.068.009,4.135-.007,6.2,0,.405.1.568.536.563q2.716-.031,5.433,0c.425,0,.548-.134.547-.552q-.019-6.178,0-12.357c0-.435-.153-.542-.561-.538-1.795.017-3.59.02-5.385,0-.446-.006-.576.139-.572.577C1392.188,1432.136,1392.177,1434.172,1392.177,1436.207Zm28.277,11.621a8.092,8.092,0,0,0,.855-.107,3.666,3.666,0,0,0,.782-6.853,3.7,3.7,0,0,0-4.195.633.539.539,0,0,0-.109.755,3.2,3.2,0,0,1-.209,3.538.5.5,0,0,0,.044.716A3.626,3.626,0,0,0,1420.454,1447.828Zm15.573-10.277c0-1.184-.1-1.28-1.26-1.28-.159,0-.319.006-.478,0-.282-.009-.332.124-.231.359a3.2,3.2,0,0,0,1.087,1.307c.228.168.5.434.759.32S1435.972,1437.766,1436.027,1437.55Zm-31.144,13.188c0,.151,0,.263,0,.374.011.7.21.9.921.9.271,0,.542-.005.812,0s.335-.107.226-.354a3.068,3.068,0,0,0-1.12-1.337c-.22-.148-.492-.4-.721-.294C1404.74,1450.157,1404.936,1450.524,1404.883,1450.739Zm29.883,1.278h.277c.8,0,.979-.178.984-.984,0-.207,0-.414,0-.621-.009-.477-.046-.494-.494-.284a2.945,2.945,0,0,0-1.178,1.021c-.158.229-.431.509-.305.759S1434.546,1451.97,1434.766,1452.017Z" transform="translate(-1390.205 -1427.585)" fill="#6366f1"/>
  <path id="Path_61282" data-name="Path 61282" d="M1451.932,1552.509a1.311,1.311,0,0,1-1.223.6c-2.662-.018-5.324-.007-7.986-.009-.768,0-.969-.145-1.2-.895a.311.311,0,0,0-.343-.257c-.16,0-.321,0-.481,0-5.629,0-11.258-.011-16.886,0a13.44,13.44,0,0,1-9.93-4.125c-1.686-1.694-3.389-3.37-5.064-5.073a3.376,3.376,0,0,1,1.778-5.708,3.261,3.261,0,0,1,3.033.969q2.336,2.325,4.663,4.658a7.368,7.368,0,0,0,2.241,1.522c0-.364-.006-.665,0-.965a3.288,3.288,0,0,1,3.154-3.154c1.731-.027,3.464-.019,5.2,0a1.086,1.086,0,0,0,.981-.455,9.549,9.549,0,0,1,5.3-3.69,9.1,9.1,0,0,1,5.933.43c.276.117.424.1.576-.175a.905.905,0,0,1,.854-.443q4.21,0,8.419,0a1.182,1.182,0,0,1,.981.6Zm-19.832-2.521c2.951,0,5.9-.005,8.852.007.394,0,.576-.081.573-.528q-.024-5.1,0-10.2a.7.7,0,0,0-.408-.688,7.233,7.233,0,0,0-7.972.515,15.285,15.285,0,0,0-2.266,2.413,1.418,1.418,0,0,1-1.173.529c-1.828-.011-3.656-.006-5.484,0-1.064,0-1.711.531-1.72,1.4-.009.851.64,1.368,1.727,1.368q4.859,0,9.718,0a2.861,2.861,0,0,1,.667.059.955.955,0,0,1,.748.944.97.97,0,0,1-.7.936,2.345,2.345,0,0,1-.761.087c-3.416,0-6.832.006-10.248-.007a10.98,10.98,0,0,1-1.626-.137,9.271,9.271,0,0,1-5.249-2.713q-2.245-2.246-4.493-4.488a1.386,1.386,0,0,0-2.181.05,1.406,1.406,0,0,0,.25,1.943c1.583,1.592,3.2,3.154,4.755,4.77a11.906,11.906,0,0,0,9.057,3.744C1426.808,1549.971,1429.454,1549.988,1432.1,1549.988Zm11.38-5.588c0,2.052.013,4.1-.01,6.157,0,.469.15.6.606.6q2.669-.033,5.339,0c.434,0,.583-.121.582-.57q-.023-6.157,0-12.313c0-.448-.145-.576-.581-.571q-2.669.03-5.339,0c-.456-.006-.611.126-.606.6C1443.493,1540.327,1443.481,1542.363,1443.48,1544.4Z" transform="translate(-1402.623 -1503.802)" fill="#d946ef"/>
  <path id="Path_61283" data-name="Path 61283" d="M1525.523,1481.455a.98.98,0,1,1-.977-.972A.951.951,0,0,1,1525.523,1481.455Z" transform="translate(-1484.283 -1464.902)" fill="#6366f1"/>
  <path id="Path_61284" data-name="Path 61284" d="M1491.539,1511.517a.979.979,0,0,1-1.957.053.979.979,0,1,1,1.957-.053Z" transform="translate(-1460.311 -1486.114)" fill="#6366f1"/>
</svg>
