<svg xmlns="http://www.w3.org/2000/svg" width="196" height="100" viewBox="0 0 196 100">
  <g id="Group_141" data-name="Group 141" transform="translate(-262.5 -11550.52)">
    <rect id="Rectangle_233" data-name="Rectangle 233" width="195" height="99" rx="7.5" transform="translate(263 11551.02)" fill="#fff" stroke="#e2e5f1" stroke-width="1"/>
    <rect id="Rectangle_243" data-name="Rectangle 243" width="195" height="99" rx="7.5" transform="translate(262.5 11551.02)" fill="#fff"/>
    <g id="G4S-Logo.wine" transform="translate(315.11 11574.106)">
      <path id="Path_523" data-name="Path 523" d="M34.2,22.152h-5.98L24.241,29.32h5.081l-.5,1.535c-1.266,3.746-5.289,6.611-8.484,6.611-6.007,0-10.307-4.629-10.307-10.8,0-5.737,3.582-10.583,10.092-10.583.242,0,.476.007.708.02v-.04H30.937c-2.191-3.91-2.989-5.3-5.188-9.165-2.262,0-3.592-.067-6.132-.067a19.95,19.95,0,0,0,0,39.894c10.315,0,17.434-7.427,19.3-16.083-2.99-5.389-4.722-8.491-4.722-8.491m44.242-3.68a2,2,0,0,1,2.209-2.24h7.02L82.453,6.911H79.274c-6.015,0-11.535,4.487-11.535,10.916,0,6.49,10.656,12.219,10.656,15.844,0,2.471-1.553,3.353-3.753,3.353H67.73v.008h.4l4.355,7.792.944,1.709h5.028A11.812,11.812,0,0,0,89.781,35.047c0-9.04-11.341-13.33-11.341-16.575" transform="translate(0 0.081)"/>
      <path id="Path_524" data-name="Path 524" d="M55.21,17.785,48.486,29.611H55.21V17.785m4.632,35.042c12.741,0,16.726-.067,16.726-.067l-3.4-6.144-.943-1.709L67.87,37.113m0,0H63.7v9.029H55.21V37.113H41.862L47.1,46.507s3.394,6.32,12.741,6.32M49.859,11.669a7.634,7.634,0,0,0-.2-7.889S47.392,0,40.344,0H21.554l17.13,30.915S47.49,15.993,49.859,11.669" transform="translate(0.254)" fill="#fc1b23"/>
    </g>
  </g>
</svg>
