<svg xmlns="http://www.w3.org/2000/svg" width="41" height="40.253" viewBox="0 0 41 40.253">
  <g id="Group_7419" data-name="Group 7419" transform="translate(0.5 0.5)">
    <path id="Path_61342" data-name="Path 61342" d="M2327.892,1438.64a3.907,3.907,0,0,1-1.254,1.7q-3.623,3.237-7.224,6.5a7.146,7.146,0,0,1-4.043,1.658c-3.375.456-6.743.962-10.115,1.448-.412.059-.822.128-1.235.175a4.437,4.437,0,0,1-2.143-.278c-1.88-.729-3.77-1.432-5.656-2.145-.134-.05-.27-.1-.4-.16a.6.6,0,0,1-.346-.771.61.61,0,0,1,.8-.345c.964.354,1.924.722,2.885,1.086,1.107.419,2.218.829,3.319,1.264a3.645,3.645,0,0,0,1.925.068q4.96-.714,9.918-1.44c.5-.073,1-.151,1.507-.208a5.931,5.931,0,0,0,3.35-1.772c2.3-2.108,4.635-4.184,6.958-6.27a1.361,1.361,0,0,0,.522-1.383,1.212,1.212,0,0,0-.936-.947,1.436,1.436,0,0,0-1.207.3c-2.41,1.616-4.827,3.222-7.229,4.85a2.107,2.107,0,0,1-1.587.449,17.314,17.314,0,0,0-5.216.48c-1.991.305-3.979.64-5.968.963a1.314,1.314,0,0,1-.541-.03c-1.237-.308-2.476-.61-3.712-.92-.475-.119-.689-.394-.6-.751.091-.379.418-.537.9-.421,1.113.268,2.226.534,3.335.818a2.121,2.121,0,0,0,.887.031l8.046-1.307c.441-.072.5-.147.429-.6a2.411,2.411,0,0,0-2.053-2.017c-2.065-.249-4.133-.472-6.2-.719a11.378,11.378,0,0,1-4.281-1.382,11.4,11.4,0,0,0-4.848-1.6,2.082,2.082,0,0,1-.231-.039c-.423-.077-.659-.331-.616-.661a.641.641,0,0,1,.771-.546,12.569,12.569,0,0,1,3.415.764,15.645,15.645,0,0,1,2.07,1,11.694,11.694,0,0,0,4.571,1.343c1.861.2,3.722.4,5.578.641a3.579,3.579,0,0,1,3.029,3.134c.041.378.177.5.569.56a2.668,2.668,0,0,0,2.037-.505c2.215-1.532,4.5-2.961,6.7-4.519a2.57,2.57,0,0,1,4.061,1.226.522.522,0,0,0,.056.1Z" transform="translate(-2287.892 -1410.898)" fill="#d946ef" stroke="#d946ef" stroke-width="1"/>
    <path id="Path_61343" data-name="Path 61343" d="M2308.408,1384.438a11.889,11.889,0,1,1-11.9,11.852A11.846,11.846,0,0,1,2308.408,1384.438Zm-.028,14.836c1.3,0,2.6,0,3.9,0,.263,0,.422-.067.447-.354a30.185,30.185,0,0,0,0-5.18c-.021-.246-.126-.369-.395-.369q-3.941.009-7.882,0c-.247,0-.333.09-.36.337a24.37,24.37,0,0,0-.01,5.136c.034.339.143.436.473.432C2305.831,1399.264,2307.105,1399.274,2308.38,1399.274Zm.032-7.1c1.209,0,2.419-.011,3.629.008.346,0,.466-.069.381-.436a17.968,17.968,0,0,0-.825-2.762,7.1,7.1,0,0,0-1.77-2.724,1.927,1.927,0,0,0-2.627-.169,4.891,4.891,0,0,0-1.408,1.7,14.078,14.078,0,0,0-1.4,3.957c-.073.341.011.438.35.434C2305.966,1392.163,2307.189,1392.17,2308.412,1392.17Zm0,8.311c-1.235,0-2.469,0-3.7,0-.3,0-.406.085-.32.392.105.375.166.762.273,1.136a9.849,9.849,0,0,0,1.939,4,2.151,2.151,0,0,0,2.321.907,3.231,3.231,0,0,0,1.656-1.362,12.652,12.652,0,0,0,1.854-4.719c.065-.3-.048-.356-.316-.354C2310.881,1400.486,2309.646,1400.481,2308.412,1400.482Zm-7.925-1.208c.69,0,1.38-.005,2.069,0,.248,0,.344-.065.314-.342a24.345,24.345,0,0,1,0-5.217c.03-.278-.071-.342-.316-.341-1.353.005-2.707.008-4.06,0a.4.4,0,0,0-.452.366,11.159,11.159,0,0,0,0,5.177c.068.29.218.368.494.362C2299.186,1399.264,2299.836,1399.274,2300.487,1399.274Zm15.827-5.9c-.637,0-1.274,0-1.911,0-.456,0-.5.047-.45.491a22.645,22.645,0,0,1,.135,2.723c-.011.741-.058,1.479-.136,2.216-.025.239-.06.473.318.47,1.365-.011,2.73-.007,4.095,0a.342.342,0,0,0,.381-.3,10.821,10.821,0,0,0,.019-5.247.4.4,0,0,0-.462-.356C2317.64,1393.387,2316.978,1393.378,2316.314,1393.377Zm-10.955-7.2a.292.292,0,0,0-.282,0,10.629,10.629,0,0,0-6.364,5.668c-.136.283-.041.326.224.325,1.247-.008,2.494-.011,3.741,0,.313,0,.421-.119.478-.416a14.6,14.6,0,0,1,1.677-4.751C2305,1386.732,2305.177,1386.466,2305.359,1386.18Zm6.027-.094c.233.363.417.628.581.906a14.441,14.441,0,0,1,1.683,4.756c.065.344.21.436.542.431,1.184-.018,2.367-.006,3.551-.007.477,0,.5-.04.287-.479a10.756,10.756,0,0,0-4.195-4.557A9.06,9.06,0,0,0,2311.386,1386.085Zm0,20.46a10.664,10.664,0,0,0,6.709-5.739c.134-.3,0-.328-.249-.327-1.222,0-2.445.014-3.667-.006-.344-.006-.48.112-.536.443a15.928,15.928,0,0,1-.864,3.073A11.882,11.882,0,0,1,2311.385,1406.545Zm-5.971-.034a13.831,13.831,0,0,1-2.269-5.685c-.056-.286-.2-.35-.458-.348-1.236.006-2.472.009-3.709,0-.3,0-.406.041-.249.363a10.732,10.732,0,0,0,5.64,5.363A3.029,3.029,0,0,0,2305.414,1406.511Z" transform="translate(-2288.683 -1384.437)" fill="#6366f1" stroke="#6366f1" stroke-width="1"/>
    <path id="Path_61344" data-name="Path 61344" d="M2285.658,1437.714q0,3.474,0,6.948a1.285,1.285,0,0,1-1.451,1.469c-1.093,0-2.186,0-3.279,0a1.214,1.214,0,0,1-1.314-1.313q-.006-7.1,0-14.209a1.236,1.236,0,0,1,1.3-1.3c1.119-.008,2.238-.005,3.357,0a1.266,1.266,0,0,1,1.386,1.382Q2285.663,1434.2,2285.658,1437.714Zm-4.842,0c0,2.249.006,4.5-.006,6.747,0,.35.1.483.462.474.909-.022,1.82-.019,2.73,0,.328.006.458-.083.457-.437q-.015-6.767,0-13.534c0-.333-.1-.464-.444-.457-.9.018-1.794.024-2.69,0-.388-.011-.517.1-.514.5C2280.826,1433.239,2280.817,1435.475,2280.816,1437.711Z" transform="translate(-2279.611 -1408.529)" fill="#d946ef" stroke="#d946ef" stroke-width="1"/>
  </g>
</svg>
