<svg xmlns="http://www.w3.org/2000/svg" width="39.281" height="40.393" viewBox="0 0 39.281 40.393">
  <g id="Group_7417" data-name="Group 7417" transform="translate(0.499 0.512)">
    <path id="Path_61348" data-name="Path 61348" d="M2294.135,1650.033c-2.334-.57-4.509-1.592-6.768-2.377-.323-.112-.422-.09-.487.269a1.671,1.671,0,0,1-1.724,1.4c-.844.031-1.691.032-2.535,0a1.7,1.7,0,0,1-1.742-1.607,4.293,4.293,0,0,1-.031-.574q0-6.224,0-12.447a5.609,5.609,0,0,1,.05-.727,1.658,1.658,0,0,1,1.648-1.476c.884-.012,1.767-.008,2.651,0a1.665,1.665,0,0,1,1.719,1.609c.02.294.109.41.407.405a5.19,5.19,0,0,1,.841.071c.272.041.356-.048.352-.325a15.53,15.53,0,0,1,.051-2.032,16.148,16.148,0,0,1,2.66-7.008,24.666,24.666,0,0,1,5.279-5.694l.49-.4a2.539,2.539,0,0,0-1.056.052,4.631,4.631,0,0,0-3.472,1.939.57.57,0,0,1-.812.17.586.586,0,0,1-.18-.839,4.872,4.872,0,0,1,2.667-2.086,7.968,7.968,0,0,1,2.286-.467,1.123,1.123,0,0,0,.556-.126,2.726,2.726,0,0,0-2.476-1.043,5.474,5.474,0,0,1-3.364-.685,1.915,1.915,0,0,1-.256-.168.606.606,0,0,1-.211-.837.6.6,0,0,1,.875-.17,4.475,4.475,0,0,0,1.641.62,6.057,6.057,0,0,0,1.341.023,3.871,3.871,0,0,1,2.988,1.058c.089.082.178.222.321.1s.008-.236-.052-.334a14.1,14.1,0,0,1-1.251-2.461,3.414,3.414,0,0,1-.269-1.986,1.073,1.073,0,0,1,1.62-.822,1.223,1.223,0,0,0,1.267-.072,1.975,1.975,0,0,1,2.215,0,1.188,1.188,0,0,0,1.365,0,2,2,0,0,1,2.217-.011,1.273,1.273,0,0,0,1.305.071,1.032,1.032,0,0,1,1.544.686,2.438,2.438,0,0,1-.021,1.474,10.778,10.778,0,0,1-1.47,3.07c-.217.338-.3.569.027.911a1.655,1.655,0,0,1,.382,1.33.5.5,0,0,0,.226.516,18.408,18.408,0,0,1,1.657,1.369c.345.324.384.652.124.936-.246.269-.6.248-.954-.047q-.721-.6-1.448-1.2c-.118-.1-.234-.2-.41-.1a5.815,5.815,0,0,1-2.542.662,14.293,14.293,0,0,1-4.653-.271,1.252,1.252,0,0,1-.366-.109c-.422-.264-.733-.118-1.086.177a24.512,24.512,0,0,0-5.3,5.876,14.057,14.057,0,0,0-2.264,7.394c-.007,1.094,0,1.1,1.012,1.429a12.646,12.646,0,0,1,2.726,1.318,8.31,8.31,0,0,0,3.693,1.173c1.82.172,3.638.385,5.45.626a3.6,3.6,0,0,1,3.092,3.569c0,.49.01.492.46.294,2.073-.915,4.145-1.832,6.223-2.735a1.43,1.43,0,0,0,.7-.618,9.977,9.977,0,0,0,1.3-6.167,15.581,15.581,0,0,0-3.739-8.4c-.266-.328-.553-.639-.82-.966a.594.594,0,0,1,.013-.86.576.576,0,0,1,.885.052,17.625,17.625,0,0,1,4.878,9.93,11.329,11.329,0,0,1-.727,5.54.581.581,0,0,0-.093.37.991.991,0,0,0,.5-.166,3.415,3.415,0,0,1,1.484-.336,2.354,2.354,0,0,1,2.242,1.724,2.442,2.442,0,0,1-.923,2.722q-5.364,3.411-10.741,6.8a8.077,8.077,0,0,1-2.723,1Zm-12.049-9.129q0,3.207,0,6.415c0,.634.14.776.759.778q1.037,0,2.075,0c.656,0,.764-.107.764-.754q0-3.419,0-6.838a2.148,2.148,0,0,1,.06-.647.552.552,0,0,1,.562-.435.565.565,0,0,1,.586.458,1.885,1.885,0,0,1,.032.457c0,1.78.016,3.56-.01,5.34a.639.639,0,0,0,.508.715c1.53.55,3.051,1.125,4.573,1.7a8.955,8.955,0,0,0,3.151.771c2.817,0,5.634.009,8.451-.005a5.742,5.742,0,0,0,3.1-.876q2.743-1.734,5.488-3.467,2.563-1.623,5.122-3.255a1.2,1.2,0,0,0,.442-1.522,1.143,1.143,0,0,0-1.37-.7,3.832,3.832,0,0,0-.8.278q-5.026,2.21-10.053,4.424a1.872,1.872,0,0,1-.78.163c-1.831-.005-3.662,0-5.493,0-.218,0-.436.007-.653-.005a.638.638,0,0,1-.671-.6c-.009-.338.236-.582.646-.624a5.623,5.623,0,0,1,.576-.012q2.42,0,4.84,0c.188,0,.391.031.427-.256a2.433,2.433,0,0,0-2.136-2.932c-1.421-.179-2.848-.313-4.269-.491a21.281,21.281,0,0,1-2.81-.394,13.386,13.386,0,0,1-3.124-1.458,10.121,10.121,0,0,0-4.744-1.377c-.321-.01-.436.1-.421.42a10.846,10.846,0,0,1-.006,1.151.6.6,0,0,1-1.155.215,1.318,1.318,0,0,1-.076-.529q0-1.287,0-2.574c0-.577-.146-.728-.727-.735-.691-.009-1.383-.006-2.074,0-.637,0-.794.162-.794.8Q2282.085,1637.7,2282.086,1640.9Zm19.794-24.159a14.719,14.719,0,0,0,2.777-.38.489.489,0,0,0,.322-.247,14.464,14.464,0,0,0,1.453-2.7,2.8,2.8,0,0,0,.222-.889c.009-.2-.066-.3-.274-.212a2.1,2.1,0,0,1-2.005-.268.916.916,0,0,0-1.077.025,2.08,2.08,0,0,1-2.415.028,1.068,1.068,0,0,0-1.28.021,1.949,1.949,0,0,1-1.76.23c-.37-.123-.432-.062-.376.315a2.506,2.506,0,0,0,.078.336,13.374,13.374,0,0,0,1.641,3.24.484.484,0,0,0,.348.207A14.939,14.939,0,0,0,2301.88,1616.745Zm.042,2.773a12.046,12.046,0,0,0,2.83-.333.812.812,0,0,0,.706-.566.751.751,0,0,0-.938-.981,13.214,13.214,0,0,1-2.16.3,12.306,12.306,0,0,1-3.121-.286c-.706-.167-1.1.186-1.019.859a.711.711,0,0,0,.609.647A12.363,12.363,0,0,0,2301.922,1619.517Z" transform="translate(-2280.846 -1610.651)" fill="#d946ef" stroke="#d946ef" stroke-width="1"/>
    <path id="Path_61349" data-name="Path 61349" d="M2322.712,1646.106c0-.6-.009-1.2,0-1.8a.493.493,0,0,0-.329-.537,7.041,7.041,0,0,1-.714-.373,2.383,2.383,0,0,1-1.31-2.378,2.7,2.7,0,0,1,1.818-2.523c.4-.15.6-.327.538-.76a.96.96,0,0,1,.048-.378.576.576,0,0,1,.622-.464c.32.021.582.239.54.54-.1.722.271.946.882,1.07a2.1,2.1,0,0,1,.99.568.584.584,0,0,1,.1.823.6.6,0,0,1-.824.131,3.28,3.28,0,0,0-.809-.432c-.2-.058-.32-.047-.318.208q.008,1.536,0,3.072c0,.233.15.3.325.365a4.363,4.363,0,0,1,1.4.706,3.3,3.3,0,0,1-1.356,5.578.418.418,0,0,0-.368.517,2.988,2.988,0,0,1-.007.537.555.555,0,0,1-.574.553.546.546,0,0,1-.606-.47,2.027,2.027,0,0,1-.045-.3c-.048-.651-.048-.65-.71-.776a4.392,4.392,0,0,1-1.641-.719.609.609,0,0,1-.211-.839.6.6,0,0,1,.87-.171,3.747,3.747,0,0,0,1.262.54c.289.047.433-.044.427-.361C2322.7,1647.385,2322.712,1646.745,2322.712,1646.106Zm1.242.262q0,.823,0,1.646c0,.19.021.333.284.24a2.241,2.241,0,0,0,1.3-2.007,1.774,1.774,0,0,0-1.276-1.719c-.257-.091-.314-.008-.31.232C2323.959,1645.3,2323.954,1645.831,2323.954,1646.367Zm-1.242-5.295c0-.371-.007-.743,0-1.114.007-.293-.086-.392-.355-.218a1.675,1.675,0,0,0-.784,1.494,1.338,1.338,0,0,0,.847,1.181c.235.133.292.031.29-.19C2322.709,1641.84,2322.712,1641.456,2322.712,1641.073Z" transform="translate(-2302.196 -1624.933)" fill="#6366f1"/>
  </g>
</svg>
