<svg xmlns="http://www.w3.org/2000/svg" width="41.004" height="42.023" viewBox="0 0 41.004 42.023">
  <g id="Group_7413" data-name="Group 7413" transform="translate(0.502 0.5)">
    <path id="Path_61332" data-name="Path 61332" d="M2295.578,1765.273a5.634,5.634,0,0,1-2.615-1.316,4.967,4.967,0,0,1-1.643-3.655.751.751,0,1,1,1.5-.137c.054.3.054.613.126.909a3.567,3.567,0,0,0,7.032-.786q0-9.009,0-18.019c0-.439-.062-.484-.5-.408a7.745,7.745,0,0,0-5.86,4.309.792.792,0,0,1-1.513.007,5.734,5.734,0,0,0-9.125-1.542,5.916,5.916,0,0,0-.874,1.092.731.731,0,0,1-.9.331.8.8,0,0,1-.51-.861,18.738,18.738,0,0,1,2.1-7.541,19.736,19.736,0,0,1,11.948-9.888,20.14,20.14,0,0,1,4.874-.861c.287-.017.363-.144.357-.4-.01-.427-.006-.854,0-1.281.008-.622.285-.97.766-.973s.769.35.773.962c0,.414.016.828,0,1.241-.015.319.091.438.426.459a19.986,19.986,0,0,1,18.621,16.842c.068.42.079.85.125,1.274.059.548-.093.886-.474,1.028s-.7-.015-1.018-.488a5.615,5.615,0,0,0-3.51-2.407,5.69,5.69,0,0,0-6.34,2.936c-.172.339-.365.632-.79.634s-.619-.287-.8-.626a7.7,7.7,0,0,0-5.663-4.21c-.573-.109-.575-.1-.575.491q0,8.809,0,17.619a5.2,5.2,0,0,1-1.83,4.1,5.811,5.811,0,0,1-2.428,1.167Zm12.076-22.141a14.824,14.824,0,0,0-.156-1.879,28.841,28.841,0,0,0-1.952-7.9,10.924,10.924,0,0,0-2.55-3.934,3.523,3.523,0,0,0-1.808-.972,3.184,3.184,0,0,0-2.767.963,11.159,11.159,0,0,0-2.666,4.187,30.023,30.023,0,0,0-1.912,8.2,4.165,4.165,0,0,0-.071,1.32C2298.4,1739.238,2303,1739.243,2307.654,1743.132Zm-10.805-14.315c-7.5,1.416-13.2,7.693-14.268,14.155a7.326,7.326,0,0,1,4.907-1.459,7.445,7.445,0,0,1,4.669,2.106c.022-.148.034-.2.036-.252a35.121,35.121,0,0,1,1.063-6.985A18.319,18.319,0,0,1,2296.849,1728.817Zm7.683-.009a12.711,12.711,0,0,1,2.131,3.307,29.872,29.872,0,0,1,2.39,9.377c.072.682.132,1.365.2,2.083,3.05-2.557,6.228-2.766,9.56-.657C2317.8,1736.664,2312.226,1730.293,2304.531,1728.808Z" transform="translate(-2280.694 -1724.25)" fill="#d946ef" stroke="#d946ef" stroke-width="1"/>
  </g>
</svg>
