<svg id="Group_7400" data-name="Group 7400" xmlns="http://www.w3.org/2000/svg" width="49.354" height="48.607" viewBox="0 0 49.354 48.607">
  <path id="Path_61266" data-name="Path 61266" d="M1404.554,1734.226a1.9,1.9,0,0,1,1.952-1.1c2.855.038,5.71.013,8.565.015a1.6,1.6,0,0,1,1.836,1.812q0,5.077,0,10.154c0,.406.025.819-.4,1.063-.438.254-.8.021-1.164-.193-.978-.583-1.958-1.163-2.927-1.762a1.627,1.627,0,0,0-.908-.244c-1.668.009-3.338-.03-5,.017a1.888,1.888,0,0,1-1.955-1.094Zm10.769,5.18c0-1.38-.014-2.76.009-4.14.007-.43-.142-.547-.557-.545q-4.068.022-8.136,0c-.394,0-.531.12-.529.522.015,2.2.019,4.4,0,6.6,0,.461.165.57.589.562,1.2-.022,2.413.065,3.609-.026a5.485,5.485,0,0,1,4.048,1.119,2.306,2.306,0,0,0,.412.249c.153.077.3.272.466.192.182-.088.089-.319.09-.486C1415.328,1742.1,1415.325,1740.754,1415.323,1739.406Z" transform="translate(-1404.554 -1714.64)" fill="#d946ef"/>
  <path id="Path_61267" data-name="Path 61267" d="M1440.2,1768.179q-8.838,0-17.676.005c-.24,0-.6-.14-.7.144a2.046,2.046,0,0,0,0,1.23c.05.176.276.122.431.123.707.005,1.413.014,2.119,0,.355-.008.48.137.477.485-.011,1.292.078,1.092-1.017,1.089-.387,0-.549.111-.535.52.025.705,0,1.413.009,2.119.005.33-.128.457-.456.454-1.325-.013-1.1.109-1.123-1.084-.008-.514-.011-1.028,0-1.541a.439.439,0,0,0-.371-.509,1.541,1.541,0,0,1-1.173-1.617c0-.434.012-.867,0-1.3a1.543,1.543,0,0,1,.922-1.554c.3-.144.306-.283.181-.558a3.388,3.388,0,0,1,.256-3.436,1.364,1.364,0,0,0,.183-.824,12.716,12.716,0,0,1,1.119-5.281c.147-.338.284-.382.609-.233,1,.46,1,.446.617,1.493a11.155,11.155,0,0,0-.681,2.9c-.034.379.073.515.488.444a6.463,6.463,0,0,1,1.249-.035c.328.009.468-.11.456-.447-.017-.481.005-.963,0-1.445-.007-.31.129-.427.433-.426,1.357.007,1.138-.1,1.145,1.059.011,2.007.015,4.014-.007,6.021-.005.467.1.642.611.641q12.474-.022,24.949,0c.484,0,.631-.133.629-.624-.018-4.8-.011-9.6-.014-14.4,0-.87-.256-1.126-1.111-1.132h-.144c-1.129,0-1.2-.09-1.056-1.245.03-.245.143-.338.371-.336.514.005,1.031-.032,1.54.021a2.164,2.164,0,0,1,1.952,2.157,3.748,3.748,0,0,0,1.088,2.856,12.221,12.221,0,0,1,2.789,7.731,2.594,2.594,0,0,0,.334,1.364,3.249,3.249,0,0,1,.128,3.141c-.148.322-.114.462.211.625a1.494,1.494,0,0,1,.875,1.437c-.007.482,0,.964,0,1.445a1.52,1.52,0,0,1-1.132,1.549.489.489,0,0,0-.413.578c.017.706,0,1.413.008,2.119.006.333-.131.456-.458.453-1.322-.013-1.1.11-1.121-1.086-.008-.514-.013-1.028,0-1.541.01-.321-.1-.488-.441-.46-.159.013-.321,0-.481,0q-13,0-26.009-.005c-.258,0-.635.141-.751-.143a2.265,2.265,0,0,1-.019-1.279c.025-.128.166-.138.278-.143.176-.007.353-.008.53-.008q13.823,0,27.646-.007c.252,0,.624.157.734-.163a2.323,2.323,0,0,0,.008-1.188c-.026-.13-.163-.139-.277-.143-.161-.005-.321-.005-.482-.005Zm-14.62-3.445h0c0-.289.007-.577,0-.865-.034-1.2.287-1.121-1.2-1.066a1.886,1.886,0,0,0-1.165,3.311,2.706,2.706,0,0,0,2.139.471c.216-.01.226-.195.227-.36C1425.579,1765.727,1425.578,1765.23,1425.578,1764.734Zm29.33-.049h0v.817c0,1.219,0,1.225,1.236,1.087a1.886,1.886,0,0,0,1.688-1.3,1.819,1.819,0,0,0-.581-2.037,2.735,2.735,0,0,0-2.1-.451c-.248.011-.24.218-.241.4C1454.906,1763.692,1454.908,1764.188,1454.908,1764.685Zm.069-9.438a.814.814,0,0,0-.064.184c0,1.793,0,3.586-.008,5.379,0,.289.12.4.4.4.416-.006.833-.008,1.248.022.541.039.582.028.53-.516a11.041,11.041,0,0,0-1.014-3.635A9.7,9.7,0,0,0,1454.977,1755.247Z" transform="translate(-1415.578 -1725.741)" fill="#6366f1"/>
  <path id="Path_61268" data-name="Path 61268" d="M1461.619,1695.068h-9.342c-.7,0-.7,0-.7-.684,0-.992-.07-.9.918-.9,1.814,0,3.628,0,5.442-.006.2,0,.493.112.557-.215a.611.611,0,0,0-.314-.765,8.857,8.857,0,0,1-3.913-4.047.834.834,0,0,0-.518-.455,3.07,3.07,0,0,1-2.172-3.07c0-2.568-.008-5.137,0-7.7a6.913,6.913,0,0,1,6.835-6.859q3.972-.017,7.945,0a6.91,6.91,0,0,1,6.841,6.854c.011,2.568,0,5.137,0,7.7a3.073,3.073,0,0,1-2.167,3.074.835.835,0,0,0-.521.452,8.835,8.835,0,0,1-3.91,4.05.614.614,0,0,0-.32.762c.063.33.353.218.554.219,1.4.009,2.793.021,4.189,0,.467-.008.663.11.644.616-.041,1.1.087.974-1,.975Q1466.146,1695.074,1461.619,1695.068Zm10-15.85c-.03-.75.029-1.662-.072-2.577a5.333,5.333,0,0,0-4.61-4.614c-1.7-.172-3.4-.066-5.1-.073a34.522,34.522,0,0,0-4.087.078,5.349,5.349,0,0,0-4.493,4.466c-.191,1.68-.054,3.366-.09,5.049,0,.164,0,.342.224.359.184.014.408.079.5-.163a.988.988,0,0,1,.986-.627,5.6,5.6,0,0,0,.807-.127,32.91,32.91,0,0,0,4.84-1.593c1-.388,1.983-.829,2.98-1.231a.811.811,0,0,1,1.217.752c.014.272,0,.546.005.818,0,.566.011.581.578.447a12.12,12.12,0,0,0,4.186-1.888.884.884,0,0,1,.99-.128.872.872,0,0,1,.413.861c0,.818,0,1.637,0,2.455,0,.251.031.439.356.44s.375-.161.373-.424C1471.61,1680.794,1471.614,1680.087,1471.614,1679.218Zm-2.312,2.516c0-.273,0-.546,0-.819,0-.571,0-.566-.487-.307a11.052,11.052,0,0,1-4.778,1.348c-.6.025-.88-.271-.9-.875,0-.128,0-.257,0-.385,0-.59-.016-.6-.556-.382a42.919,42.919,0,0,1-6.784,2.308.452.452,0,0,0-.364.33.819.819,0,0,1-.866.554c-.353,0-.706,0-1.06,0-.207,0-.345.073-.341.3a12.006,12.006,0,0,0,.035,1.394,1.338,1.338,0,0,0,1.2,1.266,1.428,1.428,0,0,1,1.252,1.065,7.375,7.375,0,0,0,8.139,4.251,7.256,7.256,0,0,0,5.445-4.5,1.114,1.114,0,0,1,.984-.777,1.454,1.454,0,0,0,1.372-1.382c.047-.429.015-.866.023-1.3,0-.258-.144-.329-.37-.326-.337,0-.675,0-1.011,0-.643-.012-.911-.274-.925-.9C1469.3,1682.313,1469.3,1682.024,1469.3,1681.735Z" transform="translate(-1437.723 -1670.355)" fill="#6366f1"/>
  <path id="Path_61269" data-name="Path 61269" d="M1536.275,1670.37c1.492,0,2.985,0,4.477,0a1.558,1.558,0,0,1,1.707,1.7q.006,3.731,0,7.462a1.553,1.553,0,0,1-1.688,1.671c-.979.005-1.958.01-2.937,0a1.268,1.268,0,0,0-.877.308c-1,.825-2.028,1.626-3.039,2.442a.949.949,0,0,1-1.1.246c-.412-.209-.437-.593-.427-.994.01-.433,0-.866,0-1.3,0-.686,0-.7-.675-.7a1.571,1.571,0,0,1-1.438-.8,1.54,1.54,0,0,1-.2-.831c0-2.52,0-5.039,0-7.559a1.541,1.541,0,0,1,1.663-1.646C1533.258,1670.366,1534.766,1670.37,1536.275,1670.37Zm-2.295,11.457c.812-.65,1.531-1.209,2.229-1.792a1.674,1.674,0,0,1,1.182-.424c1.01.027,2.021,0,3.032.012.327,0,.457-.106.456-.444q-.014-3.393,0-6.787c0-.3-.087-.44-.41-.439q-4.188.01-8.375,0c-.309,0-.426.113-.426.424q.011,3.417,0,6.835c0,.323.143.421.439.41.352-.012.706-.012,1.059,0a.761.761,0,0,1,.812.818C1533.992,1680.857,1533.98,1681.273,1533.98,1681.827Z" transform="translate(-1493.109 -1670.365)" fill="#d946ef"/>
  <path id="Path_61270" data-name="Path 61270" d="M1482.89,1773.662a3.873,3.873,0,1,1-3.868-3.84A3.844,3.844,0,0,1,1482.89,1773.662Zm-1.589.016a2.284,2.284,0,1,0-2.255,2.3A2.338,2.338,0,0,0,1481.3,1773.678Z" transform="translate(-1454.353 -1740.524)" fill="#d946ef"/>
  <path id="Path_61271" data-name="Path 61271" d="M1441.963,1819.546c.744,0,.744,0,.743.835,0,.744,0,.744-.834.743-.745,0-.745,0-.743-.834C1441.13,1819.545,1441.13,1819.545,1441.963,1819.546Z" transform="translate(-1430.356 -1775.602)" fill="#6366f1"/>
  <path id="Path_61272" data-name="Path 61272" d="M1418.024,1742.594c-.866,0-1.732-.01-2.6,0-.341.005-.5-.105-.491-.468.018-1.318-.115-1.109,1.084-1.118,1.507-.012,3.014.011,4.521-.011.448-.007.631.115.616.592-.035,1.133.091.99-1.017,1C1419.435,1742.6,1418.729,1742.594,1418.024,1742.594Z" transform="translate(-1411.878 -1720.193)" fill="#d946ef"/>
  <path id="Path_61273" data-name="Path 61273" d="M1418.04,1750.447c-.866,0-1.731-.012-2.6.005-.367.007-.517-.116-.511-.5.021-1.27-.107-1.081,1.067-1.089,1.523-.01,3.046.009,4.568-.01.43-.005.6.122.586.572-.032,1.148.1,1.009-1,1.018C1419.451,1750.452,1418.746,1750.447,1418.04,1750.447Z" transform="translate(-1411.875 -1725.734)" fill="#d946ef"/>
  <path id="Path_61274" data-name="Path 61274" d="M1418.024,1758.3c-.865,0-1.731-.009-2.6,0-.342.005-.494-.108-.49-.469.018-1.314-.115-1.106,1.086-1.115,1.507-.011,3.014.01,4.52-.011.449-.006.63.118.615.593-.035,1.116.086.99-.971,1C1419.466,1758.3,1418.745,1758.3,1418.024,1758.3Z" transform="translate(-1411.879 -1731.27)" fill="#d946ef"/>
  <path id="Path_61275" data-name="Path 61275" d="M1469.9,1714.264c0-1.216.708-2.048,1.633-2.011a1.8,1.8,0,0,1,1.492,1.981,1.776,1.776,0,0,1-1.516,1.91,1.71,1.71,0,0,1-1.591-1.577A2.905,2.905,0,0,1,1469.9,1714.264Z" transform="translate(-1450.655 -1699.911)" fill="#6366f1"/>
  <path id="Path_61276" data-name="Path 61276" d="M1499.14,1714.177a2.029,2.029,0,0,1-.637,1.553,1.341,1.341,0,0,1-2.16-.368,2.206,2.206,0,0,1-.014-2.376,1.375,1.375,0,0,1,2.414-.121A2.147,2.147,0,0,1,1499.14,1714.177Z" transform="translate(-1469.058 -1699.88)" fill="#6366f1"/>
  <path id="Path_61277" data-name="Path 61277" d="M1481.326,1733.092a.723.723,0,0,1,.822.412.673.673,0,0,0,1.186-.049,1.707,1.707,0,0,1,1.589-.306c.185.143.118.352.08.536a2.384,2.384,0,0,1-3.757,1.294,2.272,2.272,0,0,1-.808-1.222c-.135-.544-.052-.656.509-.663C1481.043,1733.091,1481.14,1733.092,1481.326,1733.092Z" transform="translate(-1458.047 -1714.588)" fill="#6366f1"/>
  <path id="Path_61278" data-name="Path 61278" d="M1543.689,1678.211c.85,0,1.7.012,2.551-.005.368-.007.517.117.51.5-.022,1.273.109,1.083-1.066,1.09-1.524.01-3.048-.01-4.572.01-.431.005-.6-.124-.586-.573.033-1.152-.1-1.01,1-1.019C1542.245,1678.206,1542.967,1678.211,1543.689,1678.211Z" transform="translate(-1500.476 -1675.893)" fill="#d946ef"/>
  <path id="Path_61279" data-name="Path 61279" d="M1543.639,1686.062c.866,0,1.733.011,2.6-.005.366-.007.519.113.512.5-.022,1.274.109,1.084-1.065,1.092-1.524.01-3.048-.01-4.572.01-.429.005-.6-.12-.587-.571.033-1.154-.1-1.011,1-1.021C1542.228,1686.057,1542.933,1686.062,1543.639,1686.062Z" transform="translate(-1500.476 -1681.432)" fill="#d946ef"/>
  <path id="Path_61280" data-name="Path 61280" d="M1543.623,1693.915c.882,0,1.765.01,2.646,0,.35-.006.487.123.482.477-.019,1.306.118,1.1-1.093,1.11-1.524.011-3.048-.009-4.572.01-.417.005-.567-.129-.557-.552.029-1.191-.1-1.028,1.024-1.039C1542.243,1693.909,1542.933,1693.914,1543.623,1693.915Z" transform="translate(-1500.478 -1686.972)" fill="#d946ef"/>
</svg>
