<svg xmlns="http://www.w3.org/2000/svg" width="41.786" height="41.781" viewBox="0 0 41.786 41.781">
  <g id="Group_7416" data-name="Group 7416" transform="translate(0.532 0.5)">
    <path id="Path_61345" data-name="Path 61345" d="M2320.413,1854.045v1.194c-.042.139-.089.277-.127.417a4.15,4.15,0,0,1-2.3,2.794.91.91,0,0,0-.6,1c.015,6.019.008,12.038.011,18.057a1.14,1.14,0,0,1-.415,1.057h-28.02a.765.765,0,0,1-.3-.909c.155-.369.495-.405.833-.424.2-.011.4-.009.6-.009h12.456c.735,0,.735,0,.736-.719q0-6.686,0-13.372c0-1.142.151-1.3,1.276-1.3h7.8c.2,0,.4-.006.6,0a.768.768,0,0,1,.846.843c.01.172.006.345.006.517q0,6.408,0,12.814c0,.265.007.531,0,.8-.006.284.126.413.408.41.424,0,.849,0,1.273,0,.479,0,.527-.049.527-.526q0-8.635.007-17.271c0-.387-.139-.5-.513-.5a4.191,4.191,0,0,1-3.367-1.679c-.223-.279-.332-.287-.546,0a4.79,4.79,0,0,1-7.388-.052c-.2-.28-.293-.229-.474.015a4.791,4.791,0,0,1-7.415-.008c-.195-.265-.286-.259-.474,0a4.808,4.808,0,0,1-7.345.1c-.3-.384-.3-.37-.632.015a4.314,4.314,0,0,1-3.288,1.61c-.517.012-.536.027-.536.546q0,8.575,0,17.152c0,.568.029.594.617.6.8,0,1.592,0,2.387.015a.725.725,0,0,1,.781.492.7.7,0,0,1-.376.836h-4.378a1.139,1.139,0,0,1-.415-1.058q.006-9.131.009-18.262a.665.665,0,0,0-.458-.719,4.271,4.271,0,0,1-2.489-4.682c.23-1.292.472-2.582.7-3.875a1.867,1.867,0,0,1,.425-.921c1.451-1.725,2.89-3.461,4.341-5.186a1.039,1.039,0,0,0,.258-.722c-.009-1.472-.006-2.944,0-4.416,0-.734.209-.939.953-.939h27.294c.732,0,.935.21.936.956,0,1.459.006,2.917,0,4.376a1.087,1.087,0,0,0,.269.758c1.452,1.724,2.891,3.46,4.342,5.186a1.86,1.86,0,0,1,.412.885C2319.9,1851.31,2320.087,1852.692,2320.413,1854.045Zm-7.98,17.908c0-1.6-.009-3.209.007-4.814,0-.382-.126-.508-.507-.505q-3.38.019-6.762,0c-.38,0-.509.123-.508.505.011,3.182.005,6.365.007,9.548,0,.481.045.53.521.53q3.361,0,6.723,0c.476,0,.519-.048.519-.53Q2312.436,1874.321,2312.432,1871.954Zm-12.4-28.969q6.307,0,12.614,0c.574,0,.611-.038.613-.609q0-1.253,0-2.506c0-.706-.012-.719-.706-.719h-16q-4.575,0-9.151,0c-.546,0-.59.046-.593.591q0,1.273,0,2.547c0,.682.014.7.687.7Zm-15.184,7.426c-.889,0-1.778.009-2.667,0a.446.446,0,0,0-.53.438c-.187,1.125-.406,2.244-.6,3.367a2.484,2.484,0,0,0,.052,1.1,3.295,3.295,0,0,0,6.356-.37c.177-1.367.338-2.736.518-4.1.041-.314-.064-.438-.383-.434C2286.678,1850.418,2285.762,1850.411,2284.847,1850.411Zm30.369,0c-.9,0-1.8.01-2.706,0-.363-.006-.456.133-.41.482.167,1.248.317,2.5.461,3.749a3.291,3.291,0,0,0,.709,1.825,3.337,3.337,0,0,0,3.36,1.042,2.952,2.952,0,0,0,2.388-3.3c-.188-1.124-.414-2.243-.6-3.367-.056-.337-.216-.437-.535-.432C2316.994,1850.42,2316.105,1850.411,2315.216,1850.411Zm-22.71,0c-.862,0-1.724.018-2.585-.009-.385-.012-.55.116-.593.5-.124,1.106-.277,2.208-.406,3.314a2.563,2.563,0,0,0,.073,1.1,3.041,3.041,0,0,0,2.779,2.245,3.139,3.139,0,0,0,3.63-3.088c.047-1.191.109-2.383.2-3.572.028-.369-.051-.505-.433-.5C2294.283,1850.423,2293.395,1850.411,2292.506,1850.411Zm15.057,0c-.9,0-1.8.006-2.705,0-.3,0-.424.082-.4.416.085,1.163.156,2.327.2,3.492a3.247,3.247,0,1,0,6.493.016c-.121-1.172-.293-2.34-.43-3.511-.037-.317-.186-.421-.5-.416C2309.34,1850.42,2308.451,1850.411,2307.563,1850.411Zm-7.5,0c-.876,0-1.751.008-2.626,0-.314,0-.465.109-.479.431-.05,1.139-.1,2.278-.17,3.416a3.246,3.246,0,1,0,6.49.1c-.025-1.166-.112-2.33-.163-3.5-.013-.31-.138-.452-.464-.447C2301.787,1850.42,2300.925,1850.411,2300.063,1850.411Zm-.041-1.335c.821,0,1.642-.006,2.462,0,.318,0,.432-.129.385-.436-.2-1.294-.408-2.588-.591-3.885-.046-.327-.2-.407-.5-.4q-1.747.017-3.5,0c-.313,0-.446.106-.49.419-.183,1.283-.386,2.564-.587,3.845-.05.32.053.468.4.463C2298.406,1849.068,2299.215,1849.077,2300.022,1849.076Zm-7.191,0c.822,0,1.645-.01,2.467,0,.319.005.476-.085.524-.431.179-1.287.384-2.57.59-3.852.056-.348-.089-.446-.412-.443q-1.711.015-3.423,0a.514.514,0,0,0-.535.315c-.648,1.337-1.309,2.667-1.96,4-.168.345-.128.4.281.4C2291.187,1849.081,2292.009,1849.077,2292.832,1849.077Zm14.414,0c.836,0,1.672,0,2.507,0,.29,0,.4-.084.252-.379q-1-2.014-1.983-4.036a.489.489,0,0,0-.5-.308q-1.751.012-3.5,0c-.334,0-.41.15-.363.449.2,1.283.408,2.566.59,3.852.045.318.179.429.489.424C2305.574,1849.069,2306.41,1849.077,2307.246,1849.076Zm-21.745,0c.822,0,1.644-.006,2.465,0a.547.547,0,0,0,.568-.335q.98-2.021,1.983-4.03c.147-.295.067-.363-.234-.361-1.14.01-2.28.008-3.419,0a.644.644,0,0,0-.543.263q-1.714,2.065-3.437,4.122c-.065.078-.185.155-.136.266s.189.067.289.068C2283.857,1849.079,2284.679,1849.077,2285.5,1849.077Zm29.045,0c.821,0,1.643,0,2.465,0,.11,0,.266.06.317-.082.038-.1-.084-.185-.15-.264-1.138-1.364-2.28-2.724-3.411-4.092a.72.72,0,0,0-.615-.282q-1.67.014-3.34,0c-.313,0-.413.053-.251.376q1,1.989,1.965,4a.571.571,0,0,0,.595.356C2312.929,1849.069,2313.738,1849.077,2314.546,1849.077Zm-5.992,16.182c1.139,0,2.278-.008,3.417,0,.341,0,.483-.119.466-.465-.019-.383-.018-.769,0-1.152.015-.334-.134-.453-.451-.436-.251.014-.5,0-.755,0-2.026,0-4.052.006-6.079-.005-.358,0-.508.118-.488.484a10.419,10.419,0,0,1,0,1.111c-.017.352.138.463.472.459C2306.276,1865.252,2307.415,1865.259,2308.554,1865.259Z" transform="translate(-2279.659 -1837.781)" fill="#d946ef" stroke="#d946ef" stroke-width="1"/>
    <path id="Path_61346" data-name="Path 61346" d="M2301.514,1898.24q-3.143,0-6.286,0c-.835,0-1.063-.218-1.065-1.063q-.01-3.7,0-7.4c0-.807.246-1.037,1.057-1.038q6.306,0,12.611,0c.8,0,1.044.234,1.047,1.049q.01,3.7,0,7.4c0,.837-.234,1.052-1.077,1.052Q2304.658,1898.241,2301.514,1898.24Zm.047-8.122c-1.844,0-3.688.008-5.532-.006-.385,0-.506.132-.5.511q.021,2.865,0,5.73c0,.377.117.515.5.514q5.492-.015,10.983,0c.385,0,.506-.134.5-.513-.015-1.9-.006-3.794-.007-5.691,0-.523-.021-.544-.534-.544Q2304.268,1890.116,2301.562,1890.118Z" transform="translate(-2287.314 -1864.685)" fill="#6366f1"/>
    <path id="Path_61347" data-name="Path 61347" d="M2309.7,1844.667h-10.782a4.7,4.7,0,0,1-.477-.011.657.657,0,0,1-.018-1.311,3.3,3.3,0,0,1,.4-.013h21.762c.079,0,.159,0,.239,0,.494.017.779.257.783.658s-.279.656-.767.674c-.145.005-.292,0-.437,0Z" transform="translate(-2289.246 -1840.711)" fill="#6366f1"/>
  </g>
</svg>
