<svg xmlns="http://www.w3.org/2000/svg" width="45.177" height="43.939" viewBox="0 0 45.177 43.939">
  <g id="Group_7421" data-name="Group 7421" transform="translate(-2588.727 -1820.254)">
    <path id="Path_61357" data-name="Path 61357" d="M2589.231,1917.009c.1,0,.209-.015.314-.015h43.476a.91.91,0,0,0,.113,0c.205-.027.271.058.27.265-.007,1.6,0,3.2,0,4.8,0,.165-.01.33-.015.495q-21.975,0-43.95,0c-.169,0-.208-.038-.207-.207C2589.234,1920.572,2589.231,1918.791,2589.231,1917.009Zm22.079,4.131h20.338c.328,0,.328,0,.328-.335q0-1.037,0-2.074c0-.443.039-.4-.4-.4h-40.542a1.25,1.25,0,0,1-.157,0c-.192-.024-.243.065-.241.247.008.736,0,1.473,0,2.209,0,.354,0,.354.354.354Z" transform="translate(0 -58.867)" fill="#d946ef" stroke="#d946ef" stroke-width="1"/>
    <path id="Path_61358" data-name="Path 61358" d="M2611.71,1820.754c3.3,2.133,6.554,4.33,9.819,6.513q5.741,3.838,11.465,7.7c.187.125.371.256.555.386.041.03.109.056.1.112-.019.078-.1.04-.154.05a.232.232,0,0,1-.045,0c-8.131.068-16.262.028-24.394.035q-7.14.006-14.281-.014c-1.336-.006-2.672-.005-4.008-.031-.225,0-.449-.024-.674-.038-.075,0-.178,0-.2-.071-.028-.1.086-.127.15-.171q1.809-1.226,3.621-2.448,5.78-3.881,11.563-7.756c2.142-1.432,4.294-2.846,6.442-4.268Zm17.35,13.409.008-.075c-.072-.053-.143-.107-.217-.158-1.341-.912-2.678-1.83-4.024-2.735-4.286-2.883-8.564-5.78-12.888-8.605a.386.386,0,0,0-.5,0c-1.4.941-2.816,1.868-4.221,2.806-4.227,2.824-8.45,5.653-12.64,8.531a.724.724,0,0,0-.26.236Q2611.737,1834.232,2629.061,1834.163Z" transform="translate(-0.402 0)" fill="#d946ef" stroke="#d946ef" stroke-width="1"/>
    <path id="Path_61359" data-name="Path 61359" d="M2600.478,1873.657q0-4.282,0-8.565c0-.351,0-.351.345-.351h4.908c.33,0,.335,0,.335.32q0,8.6,0,17.2c0,.308-.012.32-.315.32H2600.8c-.318,0-.32,0-.32-.333Q2600.478,1877.951,2600.478,1873.657Zm1.449,0q0,3.586,0,7.17c0,.319,0,.32.326.32h2.072c.294,0,.295,0,.295-.3v-14.385c0-.3,0-.3-.3-.3h-2.072c-.319,0-.32,0-.32.325Q2601.927,1870.076,2601.927,1873.661Z" transform="translate(-8.495 -26.907)" fill="#d946ef" stroke="#d946ef" stroke-width="1"/>
    <path id="Path_61360" data-name="Path 61360" d="M2682.9,1873.659q0,4.282,0,8.565c0,.353,0,.354-.344.354h-4.908c-.326,0-.336-.008-.336-.321q0-8.6,0-17.2c0-.311.009-.318.314-.318h4.977c.292,0,.3.006.3.308Q2682.9,1869.354,2682.9,1873.659Zm-1.449,0q0-3.608,0-7.215c0-.214-.061-.287-.281-.283-.721.012-1.442.011-2.162,0-.2,0-.257.059-.257.257q.007,7.238,0,14.476c0,.194.053.264.254.26.705-.01,1.411,0,2.117,0,.324,0,.325,0,.325-.321Z" transform="translate(-52.267 -26.907)" fill="#d946ef" stroke="#d946ef" stroke-width="1"/>
    <path id="Path_61361" data-name="Path 61361" d="M2617.166,1873.629q0-4.271,0-8.542c0-.352,0-.352.341-.352,1.644,0,3.287,0,4.931,0,.22,0,.3.056.3.29q-.009,8.632,0,17.265c0,.234-.082.292-.3.291-1.659-.007-3.318,0-4.977,0-.29,0-.294-.006-.294-.31Q2617.165,1877.945,2617.166,1873.629Zm4.143.042c0-2.413,0-4.825,0-7.238,0-.22-.067-.281-.281-.277-.728.012-1.457.01-2.185,0-.191,0-.262.046-.262.251q.008,7.249,0,14.5c0,.19.063.245.247.243.713-.008,1.427,0,2.14,0,.335,0,.336,0,.336-.327Z" transform="translate(-17.09 -26.9)" fill="#d946ef" stroke="#d946ef" stroke-width="1"/>
    <path id="Path_61362" data-name="Path 61362" d="M2660.683,1873.629v-8.542c0-.352,0-.353.342-.353,1.644,0,3.287,0,4.931,0,.22,0,.3.054.3.289q-.009,8.633,0,17.266c0,.233-.079.292-.3.291-1.658-.007-3.317,0-4.976,0-.291,0-.3-.007-.3-.309Q2660.683,1877.945,2660.683,1873.629Zm1.424.006c0,2.405,0,4.81,0,7.215,0,.217.042.305.282.3.728-.016,1.457-.014,2.185,0,.219,0,.26-.079.26-.276q-.006-7.226,0-14.453c0-.213-.069-.268-.271-.264-.713.01-1.426,0-2.14,0-.312,0-.312,0-.312.3Q2662.107,1870.05,2662.107,1873.635Z" transform="translate(-43.71 -26.9)" fill="#d946ef" stroke="#d946ef" stroke-width="1"/>
    <path id="Path_61363" data-name="Path 61363" d="M2640.572,1882.639a5.148,5.148,0,0,1,0-.586c.027-.245-.093-.314-.305-.33a5.735,5.735,0,0,1-1.342-.273,3.531,3.531,0,0,1-.8-.359.273.273,0,0,1-.135-.379c.081-.186.142-.38.225-.565.125-.28.143-.29.42-.17a5.406,5.406,0,0,0,1.473.474,3.152,3.152,0,0,0,1.912-.235,1.532,1.532,0,0,0,.4-2.5,5.264,5.264,0,0,0-1.772-1.048,8.04,8.04,0,0,1-1.6-.919,2.629,2.629,0,0,1,.243-4.252,3.157,3.157,0,0,1,1.176-.491c.156-.023.188-.114.187-.253,0-.443.006-.887,0-1.33,0-.195.064-.273.26-.262s.421,0,.631,0c.283,0,.3.013.3.288,0,.4.006.8,0,1.195,0,.159.052.233.213.246a5.442,5.442,0,0,1,1.551.359c.4.16.447.249.306.663-.065.192-.149.378-.214.57-.05.146-.129.157-.257.1a5.008,5.008,0,0,0-1.271-.444,2.632,2.632,0,0,0-1.836.226,1.361,1.361,0,0,0-.163,2.3,6.15,6.15,0,0,0,1.293.725,8.294,8.294,0,0,1,2.058,1.191,2.615,2.615,0,0,1,.872,2.46,2.929,2.929,0,0,1-2.407,2.584.3.3,0,0,0-.287.339c-.021.443-.027.886-.03,1.329,0,.188-.065.278-.263.269s-.391-.009-.585,0-.263-.056-.254-.247C2640.58,1883.09,2640.572,1882.865,2640.572,1882.639Z" transform="translate(-29.813 -29.61)" fill="#6366f1"/>
    <path id="Path_61364" data-name="Path 61364" d="M2647.279,1843.031c0,.715,0,1.426,0,2.136,0,.023.006.045.009.067.068.649.059.653-.585.643-.192,0-.268-.069-.265-.264.008-.541,0-1.082,0-1.623,0-.623,0-1.247,0-1.87,0-.193.046-.28.266-.277.845.013.845.005,1.266.736l1.189,2.063c.008-.132.014-.2.015-.273.015-.766.032-1.531.04-2.3,0-.162.053-.229.221-.226.707.015.607-.1.61.582.005,1.036,0,2.073,0,3.109,0,.328-.008.335-.345.336-.172,0-.346-.012-.518,0a.4.4,0,0,1-.424-.254C2648.272,1844.753,2647.771,1843.89,2647.279,1843.031Z" transform="translate(-34.996 -12.9)" fill="#6366f1"/>
    <path id="Path_61365" data-name="Path 61365" d="M2626.916,1843.8c0-.585.005-1.171,0-1.756,0-.2.061-.258.264-.244.6.04,1.2.031,1.794.109a.873.873,0,0,1,.784.61.9.9,0,0,1-.228,1.012c-.155.145-.137.237.016.352a.976.976,0,0,1,.309,1.136.962.962,0,0,1-.8.7,8.633,8.633,0,0,1-1.947.122c-.165,0-.189-.1-.188-.241C2626.918,1845,2626.917,1844.4,2626.916,1843.8Zm.924.769c0,.12,0,.24,0,.361,0,.074.026.14.11.143a1.676,1.676,0,0,0,.776-.073.436.436,0,0,0-.026-.806,1.659,1.659,0,0,0-.327-.079C2627.865,1844.039,2627.837,1844.064,2627.84,1844.569Zm.4-1.216c.089,0,.179.006.268,0,.275-.023.38-.115.393-.335.015-.259-.093-.39-.369-.435a2.118,2.118,0,0,0-.29-.017c-.4-.009-.4-.008-.4.4S2627.837,1843.363,2628.236,1843.353Z" transform="translate(-23.053 -12.873)" fill="#6366f1"/>
    <path id="Path_61366" data-name="Path 61366" d="M2658.995,1843.5c.388-.5.753-.954,1.1-1.423a.489.489,0,0,1,.486-.243c.148.018.3,0,.45.005.063,0,.148-.034.181.043.026.062-.044.1-.08.151-.362.469-.721.941-1.092,1.4a.294.294,0,0,0-.022.411c.39.587.763,1.186,1.139,1.783.121.193.1.223-.121.233-.716.031-.716.03-1.1-.58-.183-.293-.365-.586-.552-.876-.119-.184-.285-.176-.394.016a.557.557,0,0,0-.056.284c0,.315-.005.63,0,.946,0,.142-.06.209-.2.208-.172,0-.345,0-.517,0-.155,0-.206-.077-.206-.226q.005-1.79,0-3.581c0-.168.067-.23.229-.219.119.008.24,0,.36,0,.329,0,.331,0,.334.342A11.97,11.97,0,0,0,2658.995,1843.5Z" transform="translate(-42.076 -12.895)" fill="#6366f1"/>
    <path id="Path_61367" data-name="Path 61367" d="M2637.383,1841.855c.579.006.458-.046.638.454.39,1.088.772,2.179,1.156,3.27.094.269.086.28-.2.274-.8-.018-.608.078-.843-.611a.355.355,0,0,0-.413-.3,4.66,4.66,0,0,1-.921-.031.187.187,0,0,0-.243.165c-.043.19-.1.376-.147.567a.228.228,0,0,1-.253.2c-.158,0-.315.008-.473.008-.266,0-.283-.021-.2-.267.369-1.063.738-2.127,1.113-3.189C2636.8,1841.853,2636.8,1841.855,2637.383,1841.855Zm-.047.883a7.693,7.693,0,0,0-.435,1.281c-.03.1.036.139.125.14q.315,0,.63,0c.091,0,.146-.04.116-.141A9.51,9.51,0,0,0,2637.336,1842.738Z" transform="translate(-28.272 -12.908)" fill="#6366f1"/>
  </g>
</svg>
