<svg xmlns="http://www.w3.org/2000/svg" width="228.694" height="261.786" viewBox="0 0 228.694 261.786">
  <g id="Group_171" data-name="Group 171" transform="translate(0)" opacity="0.15">
    <path id="Path_527" data-name="Path 527" d="M171.212,218.311c3.256-2.654,6.659-5.44,9.806-8.015,1.839-1.529,3.51-2.931,4.814-4.044.766-.458,1.718-1.257,2.466-1.808-.433.291-.355.1-.046-.145,2.215-1.77.079-.2,2.27-2.039,1.174-1.041,4.046-3.346,6.963-5.659,4.129-3.256,8.316-6.561,10.3-8.136-.425-.275-.69-.416-.889-.561-1.374-.7-2.72-1.5-4.05-2.278-.676-.391-1.325-.8-1.98-1.182-.266-.141-.526-.3-.771-.44-.19-.1-.361-.191-.531-.283l.162.046c-1.458-.79-9.4-5.76-11.078-6.681l.219.151a12.444,12.444,0,0,1-2.289-1.554c.032.271-1.259-.34-1.75-.612l.052-.029c-.721-.382-2.439-1.181-3.625-1.85l.11-.078c-1.045-.475-2.864-1.61-3.554-2.026-1.573-1-3.939-2.663-6.171-3.807l-1.206-1.134-.216-.084-5.027-2.23c-1.152-.484.19,5.283.031,5.3a5.935,5.935,0,0,1-.065-.915,4.446,4.446,0,0,0,.1,1.32l.182.052c.181.971-.069.243.057,1.176-.13.072-.274-.8-.386-1.555a4.745,4.745,0,0,0,.229,1.641c.029.665-.181-.052-.142.725a9.653,9.653,0,0,1,.327,1.91l-.02-.006c.032,1.563.505,2.355.532,3.785l-.066-.15c-.012.5.209,1.482.228,2.406-.011-.266.079-.5.162.046.03,1.037.22,1.748.193,2.528l.23.723c.406,3.617,2.332,17.866,2.8,21.5l-.046-.144C169.885,207.691,170.52,212.8,171.212,218.311Z" transform="translate(-16.027 -28.594)" fill="#fff"/>
    <path id="Path_528" data-name="Path 528" d="M127.926,216.363c-1.4-3.968-2.858-8.106-4.205-11.95-.8-2.242-1.566-4.3-2.18-5.9-.163-.878-.6-2.031-.868-2.919.115.515-.038.362-.174-.006-.912-2.69-.153-.153-1.131-2.84-.568-1.454-1.779-4.931-2.953-8.462-1.655-4.982-3.353-10.042-4.153-12.438-.393.3-.625.5-.824.661-1.134,1.053-2.316,2.048-3.54,3.031-.6.485-1.2.99-1.775,1.46-.231.2-.463.392-.688.568l-.443.4.081-.13c-1.237,1.111-8.608,6.893-10.065,8.159l.214-.135a12.984,12.984,0,0,1-2.241,1.632c.269.055-.767,1.071-1.177,1.434l-.009-.046c-.616.545-1.944,1.892-2.985,2.775l-.052-.124c-.8.819-2.493,2.128-3.109,2.673-1.489,1.148-3.848,2.812-5.693,4.514l-1.486.755-.159.173L74.5,203.63c-.853.914,5.027,1.618,5.007,1.765a7.586,7.586,0,0,1-.9-.235,4.525,4.525,0,0,0,1.273.365l.107-.144c.959.166.2.145,1.126.345.02.159-.846-.024-1.591-.172a5.054,5.054,0,0,0,1.632.337c.621.2-.107.144.635.379a9.308,9.308,0,0,1,1.912.352l-.026.014c1.5.5,2.377.333,3.734.788l-.159.02c.468.2,1.464.311,2.342.607-.237-.09-.436-.235.081-.13,1,.33,1.721.406,2.431.676l.734.035c3.543.843,17.61,3.9,21.17,4.678l-.147-.021C117.469,214,122.5,215.134,127.926,216.363Z" transform="translate(-16.027 -28.594)" fill="#fff"/>
    <path id="Path_529" data-name="Path 529" d="M16.027,245.716c1.983-.81,4.084-1.651,6.014-2.431,1.118-.466,2.159-.89,2.962-1.25.448-.112,1.023-.363,1.483-.515-.263.078-.194-.012,0-.087,1.355-.53.069-.089,1.411-.645.725-.317,2.48-1.017,4.254-1.71,2.509-.965,5.043-1.944,6.248-2.407-.161-.2-.26-.316-.343-.4-.563-.556-1.093-1.146-1.624-1.736l-.8-.884a2.441,2.441,0,0,0-.32-.333c-.069-.064-.153-.153-.222-.217l.075.043c-.591-.607-3.707-4.236-4.4-4.939l.078.11a6.4,6.4,0,0,1-.885-1.107c-.02.147-.574-.362-.756-.567l.026-.015c-.306-.306-1.019-.949-1.486-1.455l.072-.023c-.436-.387-1.137-1.223-1.442-1.53-.623-.725-1.511-1.9-2.434-2.8l-.424-.734-.089-.069-2.115-1.855c-.491-.425-.7,2.6-.789,2.6a2.09,2.09,0,0,1,.113-.471,1.557,1.557,0,0,0-.145.659l.075.043c-.053.488-.075.11-.148.592-.072.023-.005-.439.059-.814a2.077,2.077,0,0,0-.131.837c-.093.324-.075-.043-.185.341a6.521,6.521,0,0,1-.131.99l-.02-.005c-.22.768-.108,1.216-.312,1.923l-.017-.092c-.09.236-.128.751-.256,1.195.035-.121.11-.231.075.044-.151.525-.169.892-.293,1.25l0,.373c-.349,1.825-1.574,9.065-1.889,10.922l0-.066C17,240.329,16.548,242.911,16.027,245.716Z" transform="translate(-16.027 -28.594)" fill="#fff"/>
    <path id="Path_530" data-name="Path 530" d="M191.066,51.185c-.757-2.011-1.551-4.121-2.286-6.06-.44-1.133-.837-2.188-1.177-2.985-.092-.442-.317-1.032-.469-1.491.057.257-.012.194-.087,0-.483-1.364-.089-.069-.613-1.445-.311-.746-.965-2.508-1.613-4.292-.912-2.537-1.819-5.095-2.256-6.314-.2.161-.315.26-.425.337-.576.557-1.16,1.067-1.77,1.592-.295.265-.61.525-.9.77l-.347.294a3.05,3.05,0,0,0-.217.222l.043-.075c-.627.586-4.32,3.617-5.037,4.286l.11-.078a6.139,6.139,0,0,1-1.122.859c.147.02-.376.548-.588.75l-.014-.026c-.3.286-.963.992-1.489,1.454l-.023-.072c-.408.43-1.238,1.111-1.559,1.39-.74.6-1.934,1.479-2.848,2.377l-.749.4-.07.089-1.909,2.077c-.425.491,2.582.763,2.579.85-.208-.038-.41-.1-.471-.113a1.865,1.865,0,0,0,.653.166l.043-.075c.482.073.11.075.586.168,0,.066-.439.005-.808-.079a2.683,2.683,0,0,0,.831.151c.324.093-.043.075.341.185a4.7,4.7,0,0,1,.985.152l-.006.02c.762.241,1.21.129,1.912.352l-.087,0c.237.09.745.148,1.19.276-.121-.035-.231-.11.043-.075.526.151.887.189,1.245.314l.373,0c1.813.389,9.027,1.782,10.867,2.157l-.067,0C185.715,50.086,188.3,50.61,191.066,51.185Z" transform="translate(-16.027 -28.594)" fill="#fff"/>
    <path id="Path_531" data-name="Path 531" d="M202.276,145.748c3.769-1.85,7.734-3.774,11.393-5.546,2.145-1.069,4.087-2.043,5.605-2.833.867-.276,1.962-.815,2.812-1.183-.485.166-.373,0,0-.154,2.558-1.212.133-.158,2.694-1.458,1.394-.738,4.694-2.328,8.062-3.921,4.771-2.218,9.6-4.486,11.879-5.56-.355-.365-.563-.555-.75-.741-1.181-.995-2.291-2.079-3.422-3.17-.569-.535-1.111-1.084-1.665-1.593-.222-.217-.43-.408-.658-.6-.159-.133-.3-.26-.456-.393l.156.066c-1.238-1.1-7.836-7.763-9.261-9.047l.162.2a10.659,10.659,0,0,1-1.864-2.045c-.035.274-1.157-.617-1.553-.993l.052-.029c-.609-.546-2.089-1.715-3.093-2.638l.124-.052c-.914-.7-2.4-2.221-3.006-2.788-1.3-1.336-3.217-3.505-5.135-5.128l-.917-1.379-.2-.145-4.381-3.336c-1.01-.749-1.032,5.2-1.179,5.175.049-.4.1-.8.134-.924a4.179,4.179,0,0,0-.219,1.294l.171.093c-.039.973-.125.2-.224,1.161-.145.046-.089-.835,0-1.6a4.942,4.942,0,0,0-.149,1.664c-.14.638-.171-.093-.305.678a9.924,9.924,0,0,1-.118,1.935l-.02-.006c-.308,1.531-.052,2.392-.345,3.8l-.02-.159c-.14.485-.144,1.49-.333,2.377.05-.249.18-.474.13.081-.209,1.034-.193,1.738-.387,2.492l.051.737c-.426,3.619-1.845,17.936-2.231,21.566l-.006-.133C203.43,135.1,202.881,140.211,202.276,145.748Z" transform="translate(-16.027 -28.594)" fill="#fff"/>
    <path id="Path_532" data-name="Path 532" d="M143.454,149.936c2-3.692,4.094-7.554,6.039-11.131,1.129-2.1,2.146-4.044,2.913-5.574.556-.715,1.109-1.8,1.6-2.6-.295.418-.3.219-.092-.136,1.366-2.474.017-.214,1.335-2.746.706-1.394,2.467-4.63,4.293-7.868,2.583-4.576,5.188-9.232,6.433-11.434-.5-.079-.791-.14-1.045-.169-1.537-.135-3.07-.356-4.624-.584-.777-.113-1.534-.221-2.285-.349l-.883-.122c-.214-.018-.408-.03-.6-.062l.159-.02c-1.658-.169-10.891-1.77-12.8-1.989l.242.07a12.284,12.284,0,0,1-2.72-.584c.144.26-1.3.174-1.846.1l.038-.055c-.829-.084-2.71-.165-4.056-.354l.076-.11c-1.147-.045-3.252-.408-4.07-.534-1.831-.328-4.666-.967-7.165-1.181l-1.536-.594-.24,0-5.511-.16c-1.265-.013,2.181,4.827,2.051,4.9-.2-.364-.384-.722-.421-.821a4.683,4.683,0,0,0,.576,1.194l.179-.014c.528.829.017.245.5,1.063-.1.1-.559-.642-.94-1.3a5.771,5.771,0,0,0,.833,1.443c.265.6-.179.014.138.739a8.2,8.2,0,0,1,1.015,1.648l-.02-.006c.639,1.431,1.355,1.987,1.916,3.307l-.118-.121c.167.485.747,1.286,1.115,2.136-.1-.249-.12-.494.159-.02.427.954.85,1.535,1.147,2.254l.47.573c1.752,3.194,8.935,15.67,10.74,18.836l-.1-.116C138.188,140.614,140.707,145.1,143.454,149.936Z" transform="translate(-16.027 -28.594)" fill="#fff"/>
    <path id="Path_533" data-name="Path 533" d="M205.624,290.38c1.519-3.918,3.13-8.006,4.614-11.8.858-2.226,1.623-4.282,2.194-5.89.446-.791.883-1.934,1.26-2.789-.24.456-.269.251-.118-.121,1.06-2.627-.023-.225.983-2.89.51-1.473,1.863-4.891,3.268-8.339,1.991-4.876,4-9.813,4.972-12.137-.5-.012-.8-.033-1.06-.042-1.548.059-3.093.031-4.659,0-.786-.006-1.545-.028-2.305-.049-.306,0-.592.005-.9.005l-.6.025.164-.04c-1.649.03-11.025-.387-12.934-.366l.254.029a12.325,12.325,0,0,1-2.759-.223c.176.226-1.271.314-1.823.33l.018-.06c-.838.022-2.7.167-4.073.165l.055-.116c-1.147.109-3.282,0-4.108-.019-1.874-.1-4.748-.379-7.247-.287l-1.614-.4-.246.017-5.469.53c-1.245.146,2.774,4.516,2.644,4.588-.234-.33-.468-.66-.525-.764a4.555,4.555,0,0,0,.732,1.108l.185-.035c.637.752.063.237.628,1.012-.081.13-.629-.553-1.087-1.166.4.576.729,1.194,1.021,1.322.343.558-.185.034.236.7a10.556,10.556,0,0,1,1.228,1.512l-.026.015c.8,1.344,1.587,1.79,2.325,3.03l-.124-.1c.239.462.908,1.179,1.381,1.971-.13-.234-.173-.465.165-.04.55.9,1.038,1.414,1.412,2.09l.554.51c2.128,2.951,10.826,14.419,13,17.362l-.1-.1C199.231,281.784,202.308,285.927,205.624,290.38Z" transform="translate(-16.027 -28.594)" fill="#fff"/>
  </g>
</svg>
